<svg width="223" height="34" viewBox="0 0 223 34" fill="none" xmlns="http://www.w3.org/2000/svg">
<mask id="path-1-outside-1_21_2" maskUnits="userSpaceOnUse" x="1" y="5" width="203" height="26" fill="black">
<rect fill="white" x="1" y="5" width="203" height="26"/>
<path d="M11.424 24.952L1.6 20.056V18.616L11.424 13.72L12.224 15.448L3.36 19.512V19.064L12.224 23.256L11.424 24.952ZM179.895 30.36L187.287 6.744H189.463L182.071 30.36H179.895ZM193.066 24.984L192.266 23.256L201.13 19.16V19.576L192.266 15.448L193.066 13.752L202.89 18.648V20.088L193.066 24.984Z"/>
<path d="M27.69 13.72L23.818 27.096H21.386L16.298 11C16.1913 10.6587 15.9673 10.4453 15.626 10.36L14.218 9.976V8.792H21.194V9.976L18.858 10.456L23.242 25.24H22.762L26.762 11.576L27.69 13.72ZM26.058 11C25.93 10.6587 25.706 10.4453 25.386 10.36L24.202 9.976V8.792H30.986V9.976L28.618 10.456L32.906 25.272H32.362L36.522 10.456L34.186 9.976V8.792H40.234V9.976L38.794 10.36C38.6233 10.4027 38.474 10.4773 38.346 10.584C38.2393 10.6693 38.1647 10.808 38.122 11L33.418 27.096H30.986L26.986 13.688L26.058 11ZM39.7808 20.536C39.7808 18.296 40.3354 16.5467 41.4448 15.288C42.5754 14.008 44.0901 13.368 45.9888 13.368C47.4394 13.368 48.6128 13.7627 49.5088 14.552C50.4048 15.3413 50.8528 16.4933 50.8528 18.008C50.8528 18.2213 50.8421 18.488 50.8208 18.808C50.7994 19.1067 50.7674 19.384 50.7248 19.64H41.6048V18.424H48.3248C48.3461 18.3173 48.3568 18.2213 48.3568 18.136C48.3781 18.0507 48.3888 17.944 48.3888 17.816C48.3888 16.8987 48.1434 16.152 47.6528 15.576C47.1834 14.9787 46.5114 14.68 45.6368 14.68C44.6341 14.68 43.8448 15.096 43.2688 15.928C42.6928 16.76 42.4048 18.104 42.4048 19.96C42.4048 21.368 42.5754 22.488 42.9168 23.32C43.2581 24.1307 43.7168 24.7173 44.2928 25.08C44.8901 25.4213 45.5728 25.592 46.3408 25.592C47.0874 25.592 47.7808 25.4213 48.4208 25.08C49.0821 24.7387 49.6048 24.2693 49.9888 23.672L50.7888 24.152C50.5114 25.112 49.9141 25.88 48.9968 26.456C48.1008 27.032 46.9808 27.32 45.6368 27.32C44.3141 27.32 43.2154 27.032 42.3408 26.456C41.4874 25.8587 40.8474 25.0587 40.4208 24.056C39.9941 23.032 39.7808 21.8587 39.7808 20.536ZM54.3635 8.76C54.3635 8.35467 54.1608 8.12 53.7555 8.056L52.0275 7.8V6.744C52.7102 6.552 53.4462 6.40267 54.2355 6.296C55.0462 6.168 55.7928 6.09333 56.4755 6.072L56.8595 6.424V25.432C57.1368 25.5813 57.4675 25.72 57.8515 25.848C58.2355 25.9547 58.6835 26.008 59.1955 26.008C60.5182 26.008 61.5208 25.5707 62.2035 24.696C62.8862 23.8 63.2382 22.36 63.2595 20.376C63.3022 18.4133 63.0035 17.048 62.3635 16.28C61.7235 15.4907 60.8595 15.096 59.7715 15.096C59.0675 15.096 58.4382 15.2347 57.8835 15.512C57.3288 15.768 56.8275 16.1307 56.3795 16.6L56.2515 15.704C56.7422 15.0427 57.3502 14.488 58.0755 14.04C58.8222 13.592 59.7182 13.368 60.7635 13.368C61.7448 13.368 62.6195 13.592 63.3875 14.04C64.1768 14.4667 64.8062 15.1493 65.2755 16.088C65.7448 17.0267 65.9795 18.2427 65.9795 19.736C65.9795 22.0613 65.3822 23.9067 64.1875 25.272C62.9928 26.6373 61.2648 27.32 59.0035 27.32C58.0222 27.32 57.1048 27.2133 56.2515 27C55.3982 26.7867 54.7688 26.5947 54.3635 26.424V8.76ZM73.0093 24.856C73.0093 25.2827 73.2226 25.528 73.6493 25.592L75.0573 25.816V27H68.4653V25.816L69.8733 25.592C70.2999 25.528 70.5133 25.2827 70.5133 24.856V16.12C70.5133 15.6933 70.3106 15.4587 69.9053 15.416L68.2733 15.192V14.04C68.9559 13.8267 69.6813 13.6773 70.4493 13.592C71.2386 13.4853 71.9746 13.4213 72.6573 13.4L73.0093 13.784V24.856ZM73.2013 9.816C73.2013 10.3067 73.0413 10.712 72.7213 11.032C72.4013 11.3307 71.9853 11.48 71.4733 11.48C70.9613 11.48 70.5453 11.3307 70.2253 11.032C69.9053 10.712 69.7453 10.3067 69.7453 9.816C69.7453 9.304 69.9053 8.89867 70.2253 8.6C70.5453 8.28 70.9613 8.12 71.4733 8.12C71.9853 8.12 72.4013 8.28 72.7213 8.6C73.0413 8.89867 73.2013 9.304 73.2013 9.816ZM85.699 27V25.816L86.979 25.592C87.171 25.5493 87.3203 25.4747 87.427 25.368C87.555 25.2613 87.619 25.0907 87.619 24.856V18.936C87.619 17.656 87.4377 16.696 87.075 16.056C86.7337 15.416 86.0617 15.096 85.059 15.096C84.2697 15.096 83.5123 15.2453 82.787 15.544C82.083 15.8427 81.443 16.28 80.867 16.856L80.963 15.864C81.6457 14.9253 82.435 14.2747 83.331 13.912C84.227 13.5493 85.155 13.368 86.115 13.368C87.651 13.368 88.6963 13.816 89.251 14.712C89.8057 15.608 90.083 16.8667 90.083 18.488V24.856C90.083 25.2827 90.2963 25.528 90.723 25.592L92.163 25.816V27H85.699ZM77.027 27V25.816L78.435 25.592C78.8617 25.528 79.075 25.2827 79.075 24.856V16.12C79.075 15.7147 78.8723 15.48 78.467 15.416L76.835 15.192V14.04C77.475 13.848 78.147 13.6987 78.851 13.592C79.5763 13.4853 80.2483 13.4213 80.867 13.4L81.315 13.816L81.571 16.12V24.856C81.571 25.2827 81.7737 25.528 82.179 25.592L83.491 25.816V27H77.027ZM97.6765 27.256C96.6098 27.256 95.7138 26.9787 94.9885 26.424C94.2845 25.8693 93.9325 25.0693 93.9325 24.024C93.9325 23.128 94.1885 22.424 94.7005 21.912C95.2338 21.3787 95.8952 20.9947 96.6845 20.76C97.4738 20.5253 98.2738 20.376 99.0845 20.312L102.22 20.056V21.272L99.5005 21.528C98.5618 21.592 97.8365 21.8053 97.3245 22.168C96.8338 22.5307 96.5885 23.0747 96.5885 23.8C96.5885 24.376 96.7485 24.824 97.0685 25.144C97.4098 25.464 97.9112 25.624 98.5725 25.624C99.2765 25.624 99.9698 25.464 100.653 25.144C101.357 24.824 101.89 24.4293 102.253 23.96L102.541 24.568C102.093 25.3573 101.431 26.008 100.557 26.52C99.7032 27.0107 98.7432 27.256 97.6765 27.256ZM94.3165 16.184C94.6365 15.288 95.2765 14.6053 96.2365 14.136C97.1965 13.6667 98.2952 13.432 99.5325 13.432C101.09 13.432 102.253 13.8267 103.021 14.616C103.789 15.384 104.173 16.568 104.173 18.168V24.792C104.173 25.2613 104.407 25.5173 104.877 25.56L106.189 25.688V26.776C105.975 26.84 105.645 26.9253 105.197 27.032C104.749 27.1387 104.333 27.192 103.949 27.192C103.309 27.192 102.797 27.0107 102.413 26.648C102.05 26.2853 101.826 25.752 101.741 25.048V18.52C101.741 17.3253 101.495 16.4933 101.005 16.024C100.535 15.5333 99.8098 15.288 98.8285 15.288C98.1032 15.288 97.4098 15.4053 96.7485 15.64C96.0872 15.8747 95.4792 16.2587 94.9245 16.792L94.3165 16.184ZM111.995 16.728C112.272 16.216 112.656 15.704 113.147 15.192C113.659 14.6587 114.235 14.2213 114.875 13.88C115.536 13.5387 116.208 13.368 116.891 13.368C117.126 13.368 117.392 13.4 117.691 13.464C118.011 13.528 118.278 13.6133 118.491 13.72C118.534 14.36 118.523 15.096 118.459 15.928C118.416 16.7387 118.32 17.4853 118.171 18.168H116.987L116.635 16.344C116.571 16.088 116.475 15.9067 116.347 15.8C116.24 15.6933 116.07 15.64 115.835 15.64C115.216 15.64 114.576 15.8 113.915 16.12C113.254 16.4187 112.656 16.8987 112.123 17.56L111.995 16.728ZM112.571 16.696V24.856C112.571 25.304 112.795 25.5493 113.243 25.592L115.579 25.848V27H108.027V25.816L109.435 25.592C109.862 25.528 110.075 25.2827 110.075 24.856V16.184C110.075 15.7147 109.862 15.448 109.435 15.384L107.835 15.192V14.04C108.454 13.848 109.115 13.6987 109.819 13.592C110.544 13.4853 111.216 13.4213 111.835 13.4L112.219 13.784L112.571 16.696ZM132.034 13.72L128.162 27.096H125.73L120.642 11C120.535 10.6587 120.311 10.4453 119.97 10.36L118.562 9.976V8.792H125.538V9.976L123.202 10.456L127.586 25.24H127.106L131.106 11.576L132.034 13.72ZM130.402 11C130.274 10.6587 130.05 10.4453 129.73 10.36L128.546 9.976V8.792H135.33V9.976L132.962 10.456L137.25 25.272H136.706L140.866 10.456L138.53 9.976V8.792H144.578V9.976L143.138 10.36C142.967 10.4027 142.818 10.4773 142.69 10.584C142.583 10.6693 142.508 10.808 142.466 11L137.762 27.096H135.33L131.33 13.688L130.402 11ZM150.009 24.856C150.009 25.2827 150.223 25.528 150.649 25.592L152.057 25.816V27H145.465V25.816L146.873 25.592C147.3 25.528 147.513 25.2827 147.513 24.856V16.12C147.513 15.6933 147.311 15.4587 146.905 15.416L145.273 15.192V14.04C145.956 13.8267 146.681 13.6773 147.449 13.592C148.239 13.4853 148.975 13.4213 149.657 13.4L150.009 13.784V24.856ZM150.201 9.816C150.201 10.3067 150.041 10.712 149.721 11.032C149.401 11.3307 148.985 11.48 148.473 11.48C147.961 11.48 147.545 11.3307 147.225 11.032C146.905 10.712 146.745 10.3067 146.745 9.816C146.745 9.304 146.905 8.89867 147.225 8.6C147.545 8.28 147.961 8.12 148.473 8.12C148.985 8.12 149.401 8.28 149.721 8.6C150.041 8.89867 150.201 9.304 150.201 9.816ZM154.379 26.328C154.294 25.688 154.262 25.0693 154.283 24.472C154.304 23.8533 154.347 23.2773 154.411 22.744H155.755L156.235 24.504C156.342 24.9733 156.523 25.2933 156.779 25.464C156.992 25.592 157.302 25.7307 157.707 25.88C158.134 26.0293 158.635 26.104 159.211 26.104C160.022 26.104 160.63 25.9227 161.035 25.56C161.462 25.176 161.675 24.664 161.675 24.024C161.675 23.5333 161.536 23.1387 161.259 22.84C160.982 22.52 160.576 22.232 160.043 21.976C159.51 21.72 158.859 21.432 158.091 21.112C157.046 20.6853 156.192 20.2053 155.531 19.672C154.87 19.1173 154.539 18.3067 154.539 17.24C154.539 15.96 154.987 15 155.883 14.36C156.8 13.6987 157.984 13.368 159.435 13.368C160.118 13.368 160.822 13.4427 161.547 13.592C162.272 13.7413 162.88 13.9227 163.371 14.136C163.392 14.712 163.382 15.288 163.339 15.864C163.296 16.44 163.222 17.0053 163.115 17.56H161.867L161.483 15.96C161.419 15.7467 161.344 15.5653 161.259 15.416C161.174 15.2667 161.035 15.1387 160.843 15.032C160.651 14.9253 160.416 14.8293 160.139 14.744C159.883 14.6587 159.574 14.6053 159.211 14.584C158.528 14.5627 157.963 14.712 157.515 15.032C157.067 15.352 156.843 15.8533 156.843 16.536C156.843 17.048 156.992 17.464 157.291 17.784C157.59 18.104 157.963 18.3707 158.411 18.584C158.88 18.776 159.371 18.968 159.883 19.16C160.608 19.4373 161.291 19.7467 161.931 20.088C162.571 20.4293 163.083 20.8667 163.467 21.4C163.872 21.9333 164.075 22.6053 164.075 23.416C164.075 24.6533 163.595 25.6133 162.635 26.296C161.675 26.9787 160.427 27.32 158.891 27.32C157.974 27.32 157.12 27.2133 156.331 27C155.542 26.7867 154.891 26.5627 154.379 26.328ZM166.625 20.536C166.625 18.296 167.179 16.5467 168.289 15.288C169.419 14.008 170.934 13.368 172.833 13.368C174.283 13.368 175.457 13.7627 176.353 14.552C177.249 15.3413 177.697 16.4933 177.697 18.008C177.697 18.2213 177.686 18.488 177.665 18.808C177.643 19.1067 177.611 19.384 177.569 19.64H168.449V18.424H175.169C175.19 18.3173 175.201 18.2213 175.201 18.136C175.222 18.0507 175.233 17.944 175.233 17.816C175.233 16.8987 174.987 16.152 174.497 15.576C174.027 14.9787 173.355 14.68 172.481 14.68C171.478 14.68 170.689 15.096 170.113 15.928C169.537 16.76 169.249 18.104 169.249 19.96C169.249 21.368 169.419 22.488 169.761 23.32C170.102 24.1307 170.561 24.7173 171.137 25.08C171.734 25.4213 172.417 25.592 173.185 25.592C173.931 25.592 174.625 25.4213 175.265 25.08C175.926 24.7387 176.449 24.2693 176.833 23.672L177.633 24.152C177.355 25.112 176.758 25.88 175.841 26.456C174.945 27.032 173.825 27.32 172.481 27.32C171.158 27.32 170.059 27.032 169.185 26.456C168.331 25.8587 167.691 25.0587 167.265 24.056C166.838 23.032 166.625 21.8587 166.625 20.536Z"/>
</mask>
<path d="M11.424 24.952L1.6 20.056V18.616L11.424 13.72L12.224 15.448L3.36 19.512V19.064L12.224 23.256L11.424 24.952ZM179.895 30.36L187.287 6.744H189.463L182.071 30.36H179.895ZM193.066 24.984L192.266 23.256L201.13 19.16V19.576L192.266 15.448L193.066 13.752L202.89 18.648V20.088L193.066 24.984Z" fill="#3C52BE"/>
<path d="M27.69 13.72L23.818 27.096H21.386L16.298 11C16.1913 10.6587 15.9673 10.4453 15.626 10.36L14.218 9.976V8.792H21.194V9.976L18.858 10.456L23.242 25.24H22.762L26.762 11.576L27.69 13.72ZM26.058 11C25.93 10.6587 25.706 10.4453 25.386 10.36L24.202 9.976V8.792H30.986V9.976L28.618 10.456L32.906 25.272H32.362L36.522 10.456L34.186 9.976V8.792H40.234V9.976L38.794 10.36C38.6233 10.4027 38.474 10.4773 38.346 10.584C38.2393 10.6693 38.1647 10.808 38.122 11L33.418 27.096H30.986L26.986 13.688L26.058 11ZM39.7808 20.536C39.7808 18.296 40.3354 16.5467 41.4448 15.288C42.5754 14.008 44.0901 13.368 45.9888 13.368C47.4394 13.368 48.6128 13.7627 49.5088 14.552C50.4048 15.3413 50.8528 16.4933 50.8528 18.008C50.8528 18.2213 50.8421 18.488 50.8208 18.808C50.7994 19.1067 50.7674 19.384 50.7248 19.64H41.6048V18.424H48.3248C48.3461 18.3173 48.3568 18.2213 48.3568 18.136C48.3781 18.0507 48.3888 17.944 48.3888 17.816C48.3888 16.8987 48.1434 16.152 47.6528 15.576C47.1834 14.9787 46.5114 14.68 45.6368 14.68C44.6341 14.68 43.8448 15.096 43.2688 15.928C42.6928 16.76 42.4048 18.104 42.4048 19.96C42.4048 21.368 42.5754 22.488 42.9168 23.32C43.2581 24.1307 43.7168 24.7173 44.2928 25.08C44.8901 25.4213 45.5728 25.592 46.3408 25.592C47.0874 25.592 47.7808 25.4213 48.4208 25.08C49.0821 24.7387 49.6048 24.2693 49.9888 23.672L50.7888 24.152C50.5114 25.112 49.9141 25.88 48.9968 26.456C48.1008 27.032 46.9808 27.32 45.6368 27.32C44.3141 27.32 43.2154 27.032 42.3408 26.456C41.4874 25.8587 40.8474 25.0587 40.4208 24.056C39.9941 23.032 39.7808 21.8587 39.7808 20.536ZM54.3635 8.76C54.3635 8.35467 54.1608 8.12 53.7555 8.056L52.0275 7.8V6.744C52.7102 6.552 53.4462 6.40267 54.2355 6.296C55.0462 6.168 55.7928 6.09333 56.4755 6.072L56.8595 6.424V25.432C57.1368 25.5813 57.4675 25.72 57.8515 25.848C58.2355 25.9547 58.6835 26.008 59.1955 26.008C60.5182 26.008 61.5208 25.5707 62.2035 24.696C62.8862 23.8 63.2382 22.36 63.2595 20.376C63.3022 18.4133 63.0035 17.048 62.3635 16.28C61.7235 15.4907 60.8595 15.096 59.7715 15.096C59.0675 15.096 58.4382 15.2347 57.8835 15.512C57.3288 15.768 56.8275 16.1307 56.3795 16.6L56.2515 15.704C56.7422 15.0427 57.3502 14.488 58.0755 14.04C58.8222 13.592 59.7182 13.368 60.7635 13.368C61.7448 13.368 62.6195 13.592 63.3875 14.04C64.1768 14.4667 64.8062 15.1493 65.2755 16.088C65.7448 17.0267 65.9795 18.2427 65.9795 19.736C65.9795 22.0613 65.3822 23.9067 64.1875 25.272C62.9928 26.6373 61.2648 27.32 59.0035 27.32C58.0222 27.32 57.1048 27.2133 56.2515 27C55.3982 26.7867 54.7688 26.5947 54.3635 26.424V8.76ZM73.0093 24.856C73.0093 25.2827 73.2226 25.528 73.6493 25.592L75.0573 25.816V27H68.4653V25.816L69.8733 25.592C70.2999 25.528 70.5133 25.2827 70.5133 24.856V16.12C70.5133 15.6933 70.3106 15.4587 69.9053 15.416L68.2733 15.192V14.04C68.9559 13.8267 69.6813 13.6773 70.4493 13.592C71.2386 13.4853 71.9746 13.4213 72.6573 13.4L73.0093 13.784V24.856ZM73.2013 9.816C73.2013 10.3067 73.0413 10.712 72.7213 11.032C72.4013 11.3307 71.9853 11.48 71.4733 11.48C70.9613 11.48 70.5453 11.3307 70.2253 11.032C69.9053 10.712 69.7453 10.3067 69.7453 9.816C69.7453 9.304 69.9053 8.89867 70.2253 8.6C70.5453 8.28 70.9613 8.12 71.4733 8.12C71.9853 8.12 72.4013 8.28 72.7213 8.6C73.0413 8.89867 73.2013 9.304 73.2013 9.816ZM85.699 27V25.816L86.979 25.592C87.171 25.5493 87.3203 25.4747 87.427 25.368C87.555 25.2613 87.619 25.0907 87.619 24.856V18.936C87.619 17.656 87.4377 16.696 87.075 16.056C86.7337 15.416 86.0617 15.096 85.059 15.096C84.2697 15.096 83.5123 15.2453 82.787 15.544C82.083 15.8427 81.443 16.28 80.867 16.856L80.963 15.864C81.6457 14.9253 82.435 14.2747 83.331 13.912C84.227 13.5493 85.155 13.368 86.115 13.368C87.651 13.368 88.6963 13.816 89.251 14.712C89.8057 15.608 90.083 16.8667 90.083 18.488V24.856C90.083 25.2827 90.2963 25.528 90.723 25.592L92.163 25.816V27H85.699ZM77.027 27V25.816L78.435 25.592C78.8617 25.528 79.075 25.2827 79.075 24.856V16.12C79.075 15.7147 78.8723 15.48 78.467 15.416L76.835 15.192V14.04C77.475 13.848 78.147 13.6987 78.851 13.592C79.5763 13.4853 80.2483 13.4213 80.867 13.4L81.315 13.816L81.571 16.12V24.856C81.571 25.2827 81.7737 25.528 82.179 25.592L83.491 25.816V27H77.027ZM97.6765 27.256C96.6098 27.256 95.7138 26.9787 94.9885 26.424C94.2845 25.8693 93.9325 25.0693 93.9325 24.024C93.9325 23.128 94.1885 22.424 94.7005 21.912C95.2338 21.3787 95.8952 20.9947 96.6845 20.76C97.4738 20.5253 98.2738 20.376 99.0845 20.312L102.22 20.056V21.272L99.5005 21.528C98.5618 21.592 97.8365 21.8053 97.3245 22.168C96.8338 22.5307 96.5885 23.0747 96.5885 23.8C96.5885 24.376 96.7485 24.824 97.0685 25.144C97.4098 25.464 97.9112 25.624 98.5725 25.624C99.2765 25.624 99.9698 25.464 100.653 25.144C101.357 24.824 101.89 24.4293 102.253 23.96L102.541 24.568C102.093 25.3573 101.431 26.008 100.557 26.52C99.7032 27.0107 98.7432 27.256 97.6765 27.256ZM94.3165 16.184C94.6365 15.288 95.2765 14.6053 96.2365 14.136C97.1965 13.6667 98.2952 13.432 99.5325 13.432C101.09 13.432 102.253 13.8267 103.021 14.616C103.789 15.384 104.173 16.568 104.173 18.168V24.792C104.173 25.2613 104.407 25.5173 104.877 25.56L106.189 25.688V26.776C105.975 26.84 105.645 26.9253 105.197 27.032C104.749 27.1387 104.333 27.192 103.949 27.192C103.309 27.192 102.797 27.0107 102.413 26.648C102.05 26.2853 101.826 25.752 101.741 25.048V18.52C101.741 17.3253 101.495 16.4933 101.005 16.024C100.535 15.5333 99.8098 15.288 98.8285 15.288C98.1032 15.288 97.4098 15.4053 96.7485 15.64C96.0872 15.8747 95.4792 16.2587 94.9245 16.792L94.3165 16.184ZM111.995 16.728C112.272 16.216 112.656 15.704 113.147 15.192C113.659 14.6587 114.235 14.2213 114.875 13.88C115.536 13.5387 116.208 13.368 116.891 13.368C117.126 13.368 117.392 13.4 117.691 13.464C118.011 13.528 118.278 13.6133 118.491 13.72C118.534 14.36 118.523 15.096 118.459 15.928C118.416 16.7387 118.32 17.4853 118.171 18.168H116.987L116.635 16.344C116.571 16.088 116.475 15.9067 116.347 15.8C116.24 15.6933 116.07 15.64 115.835 15.64C115.216 15.64 114.576 15.8 113.915 16.12C113.254 16.4187 112.656 16.8987 112.123 17.56L111.995 16.728ZM112.571 16.696V24.856C112.571 25.304 112.795 25.5493 113.243 25.592L115.579 25.848V27H108.027V25.816L109.435 25.592C109.862 25.528 110.075 25.2827 110.075 24.856V16.184C110.075 15.7147 109.862 15.448 109.435 15.384L107.835 15.192V14.04C108.454 13.848 109.115 13.6987 109.819 13.592C110.544 13.4853 111.216 13.4213 111.835 13.4L112.219 13.784L112.571 16.696ZM132.034 13.72L128.162 27.096H125.73L120.642 11C120.535 10.6587 120.311 10.4453 119.97 10.36L118.562 9.976V8.792H125.538V9.976L123.202 10.456L127.586 25.24H127.106L131.106 11.576L132.034 13.72ZM130.402 11C130.274 10.6587 130.05 10.4453 129.73 10.36L128.546 9.976V8.792H135.33V9.976L132.962 10.456L137.25 25.272H136.706L140.866 10.456L138.53 9.976V8.792H144.578V9.976L143.138 10.36C142.967 10.4027 142.818 10.4773 142.69 10.584C142.583 10.6693 142.508 10.808 142.466 11L137.762 27.096H135.33L131.33 13.688L130.402 11ZM150.009 24.856C150.009 25.2827 150.223 25.528 150.649 25.592L152.057 25.816V27H145.465V25.816L146.873 25.592C147.3 25.528 147.513 25.2827 147.513 24.856V16.12C147.513 15.6933 147.311 15.4587 146.905 15.416L145.273 15.192V14.04C145.956 13.8267 146.681 13.6773 147.449 13.592C148.239 13.4853 148.975 13.4213 149.657 13.4L150.009 13.784V24.856ZM150.201 9.816C150.201 10.3067 150.041 10.712 149.721 11.032C149.401 11.3307 148.985 11.48 148.473 11.48C147.961 11.48 147.545 11.3307 147.225 11.032C146.905 10.712 146.745 10.3067 146.745 9.816C146.745 9.304 146.905 8.89867 147.225 8.6C147.545 8.28 147.961 8.12 148.473 8.12C148.985 8.12 149.401 8.28 149.721 8.6C150.041 8.89867 150.201 9.304 150.201 9.816ZM154.379 26.328C154.294 25.688 154.262 25.0693 154.283 24.472C154.304 23.8533 154.347 23.2773 154.411 22.744H155.755L156.235 24.504C156.342 24.9733 156.523 25.2933 156.779 25.464C156.992 25.592 157.302 25.7307 157.707 25.88C158.134 26.0293 158.635 26.104 159.211 26.104C160.022 26.104 160.63 25.9227 161.035 25.56C161.462 25.176 161.675 24.664 161.675 24.024C161.675 23.5333 161.536 23.1387 161.259 22.84C160.982 22.52 160.576 22.232 160.043 21.976C159.51 21.72 158.859 21.432 158.091 21.112C157.046 20.6853 156.192 20.2053 155.531 19.672C154.87 19.1173 154.539 18.3067 154.539 17.24C154.539 15.96 154.987 15 155.883 14.36C156.8 13.6987 157.984 13.368 159.435 13.368C160.118 13.368 160.822 13.4427 161.547 13.592C162.272 13.7413 162.88 13.9227 163.371 14.136C163.392 14.712 163.382 15.288 163.339 15.864C163.296 16.44 163.222 17.0053 163.115 17.56H161.867L161.483 15.96C161.419 15.7467 161.344 15.5653 161.259 15.416C161.174 15.2667 161.035 15.1387 160.843 15.032C160.651 14.9253 160.416 14.8293 160.139 14.744C159.883 14.6587 159.574 14.6053 159.211 14.584C158.528 14.5627 157.963 14.712 157.515 15.032C157.067 15.352 156.843 15.8533 156.843 16.536C156.843 17.048 156.992 17.464 157.291 17.784C157.59 18.104 157.963 18.3707 158.411 18.584C158.88 18.776 159.371 18.968 159.883 19.16C160.608 19.4373 161.291 19.7467 161.931 20.088C162.571 20.4293 163.083 20.8667 163.467 21.4C163.872 21.9333 164.075 22.6053 164.075 23.416C164.075 24.6533 163.595 25.6133 162.635 26.296C161.675 26.9787 160.427 27.32 158.891 27.32C157.974 27.32 157.12 27.2133 156.331 27C155.542 26.7867 154.891 26.5627 154.379 26.328ZM166.625 20.536C166.625 18.296 167.179 16.5467 168.289 15.288C169.419 14.008 170.934 13.368 172.833 13.368C174.283 13.368 175.457 13.7627 176.353 14.552C177.249 15.3413 177.697 16.4933 177.697 18.008C177.697 18.2213 177.686 18.488 177.665 18.808C177.643 19.1067 177.611 19.384 177.569 19.64H168.449V18.424H175.169C175.19 18.3173 175.201 18.2213 175.201 18.136C175.222 18.0507 175.233 17.944 175.233 17.816C175.233 16.8987 174.987 16.152 174.497 15.576C174.027 14.9787 173.355 14.68 172.481 14.68C171.478 14.68 170.689 15.096 170.113 15.928C169.537 16.76 169.249 18.104 169.249 19.96C169.249 21.368 169.419 22.488 169.761 23.32C170.102 24.1307 170.561 24.7173 171.137 25.08C171.734 25.4213 172.417 25.592 173.185 25.592C173.931 25.592 174.625 25.4213 175.265 25.08C175.926 24.7387 176.449 24.2693 176.833 23.672L177.633 24.152C177.355 25.112 176.758 25.88 175.841 26.456C174.945 27.032 173.825 27.32 172.481 27.32C171.158 27.32 170.059 27.032 169.185 26.456C168.331 25.8587 167.691 25.0587 167.265 24.056C166.838 23.032 166.625 21.8587 166.625 20.536Z" fill="white"/>
<path d="M11.424 24.952L11.201 25.3995L11.6583 25.6274L11.8762 25.1653L11.424 24.952ZM1.6 20.056H1.1V20.3655L1.37698 20.5035L1.6 20.056ZM1.6 18.616L1.37698 18.1685L1.1 18.3065V18.616H1.6ZM11.424 13.72L11.8777 13.5099L11.6615 13.043L11.201 13.2725L11.424 13.72ZM12.224 15.448L12.4324 15.9025L12.8886 15.6934L12.6777 15.2379L12.224 15.448ZM3.36 19.512H2.86V20.2913L3.56838 19.9665L3.36 19.512ZM3.36 19.064L3.57376 18.612L2.86 18.2744V19.064H3.36ZM12.224 23.256L12.6762 23.4693L12.8893 23.0175L12.4378 22.804L12.224 23.256ZM11.647 24.5045L1.82302 19.6085L1.37698 20.5035L11.201 25.3995L11.647 24.5045ZM2.1 20.056V18.616H1.1V20.056H2.1ZM1.82302 19.0635L11.647 14.1675L11.201 13.2725L1.37698 18.1685L1.82302 19.0635ZM10.9703 13.9301L11.7703 15.6581L12.6777 15.2379L11.8777 13.5099L10.9703 13.9301ZM12.0156 14.9935L3.15162 19.0575L3.56838 19.9665L12.4324 15.9025L12.0156 14.9935ZM3.86 19.512V19.064H2.86V19.512H3.86ZM3.14624 19.516L12.0102 23.708L12.4378 22.804L3.57376 18.612L3.14624 19.516ZM11.7718 23.0427L10.9718 24.7387L11.8762 25.1653L12.6762 23.4693L11.7718 23.0427ZM27.69 13.72L28.1703 13.859L28.2203 13.6864L28.1489 13.5214L27.69 13.72ZM23.818 27.096V27.596H24.1938L24.2983 27.235L23.818 27.096ZM21.386 27.096L20.9093 27.2467L21.0197 27.596H21.386V27.096ZM16.298 11L15.8208 11.1491L15.8213 11.1507L16.298 11ZM15.626 10.36L15.4944 10.8425L15.5047 10.8451L15.626 10.36ZM14.218 9.976H13.718V10.3579L14.0864 10.4584L14.218 9.976ZM14.218 8.792V8.292H13.718V8.792H14.218ZM21.194 8.792H21.694V8.292H21.194V8.792ZM21.194 9.976L21.2946 10.4658L21.694 10.3837V9.976H21.194ZM18.858 10.456L18.7574 9.96623L18.2238 10.0759L18.3786 10.5981L18.858 10.456ZM23.242 25.24V25.74H23.9118L23.7214 25.0978L23.242 25.24ZM22.762 25.24L22.2821 25.0995L22.0946 25.74H22.762V25.24ZM26.762 11.576L27.2209 11.3774L26.671 10.1071L26.2821 11.4355L26.762 11.576ZM26.058 11L26.5308 10.8368L26.5262 10.8244L26.058 11ZM25.386 10.36L25.2317 10.8356L25.2444 10.8397L25.2572 10.8431L25.386 10.36ZM24.202 9.976H23.702V10.3395L24.0477 10.4516L24.202 9.976ZM24.202 8.792V8.292H23.702V8.792H24.202ZM30.986 8.792H31.486V8.292H30.986V8.792ZM30.986 9.976L31.0853 10.466L31.486 10.3848V9.976H30.986ZM28.618 10.456L28.5187 9.96597L27.9869 10.0738L28.1377 10.595L28.618 10.456ZM32.906 25.272V25.772H33.5712L33.3863 25.133L32.906 25.272ZM32.362 25.272L31.8806 25.1368L31.7023 25.772H32.362V25.272ZM36.522 10.456L37.0034 10.5912L37.1485 10.0743L36.6226 9.96623L36.522 10.456ZM34.186 9.976H33.686V10.3837L34.0854 10.4658L34.186 9.976ZM34.186 8.792V8.292H33.686V8.792H34.186ZM40.234 8.792H40.734V8.292H40.234V8.792ZM40.234 9.976L40.3628 10.4591L40.734 10.3601V9.976H40.234ZM38.794 10.36L38.9153 10.8451L38.9228 10.8431L38.794 10.36ZM38.346 10.584L38.6584 10.9745L38.6661 10.9681L38.346 10.584ZM38.122 11L38.6019 11.1403L38.6065 11.1245L38.6101 11.1085L38.122 11ZM33.418 27.096V27.596H33.7928L33.8979 27.2363L33.418 27.096ZM30.986 27.096L30.5069 27.2389L30.6134 27.596H30.986V27.096ZM26.986 13.688L27.4651 13.5451L27.4621 13.5349L27.4586 13.5248L26.986 13.688ZM27.2097 13.581L23.3377 26.957L24.2983 27.235L28.1703 13.859L27.2097 13.581ZM23.818 26.596H21.386V27.596H23.818V26.596ZM21.8627 26.9453L16.7747 10.8493L15.8213 11.1507L20.9093 27.2467L21.8627 26.9453ZM16.7752 10.8509C16.6176 10.3465 16.2611 10.0034 15.7473 9.87493L15.5047 10.8451C15.6736 10.8873 15.765 10.9708 15.8208 11.1491L16.7752 10.8509ZM15.7576 9.87762L14.3496 9.49362L14.0864 10.4584L15.4944 10.8424L15.7576 9.87762ZM14.718 9.976V8.792H13.718V9.976H14.718ZM14.218 9.292H21.194V8.292H14.218V9.292ZM20.694 8.792V9.976H21.694V8.792H20.694ZM21.0934 9.48623L18.7574 9.96623L18.9586 10.9458L21.2946 10.4658L21.0934 9.48623ZM18.3786 10.5981L22.7626 25.3822L23.7214 25.0978L19.3374 10.3138L18.3786 10.5981ZM23.242 24.74H22.762V25.74H23.242V24.74ZM23.2419 25.3805L27.2419 11.7165L26.2821 11.4355L22.2821 25.0995L23.2419 25.3805ZM26.3031 11.7746L27.2311 13.9186L28.1489 13.5214L27.2209 11.3774L26.3031 11.7746ZM26.5262 10.8244C26.3481 10.3495 26.0085 10.0085 25.5148 9.87688L25.2572 10.8431C25.4035 10.8821 25.5119 10.9678 25.5898 11.1756L26.5262 10.8244ZM25.5403 9.88439L24.3563 9.50039L24.0477 10.4516L25.2317 10.8356L25.5403 9.88439ZM24.702 9.976V8.792H23.702V9.976H24.702ZM24.202 9.292H30.986V8.292H24.202V9.292ZM30.486 8.792V9.976H31.486V8.792H30.486ZM30.8867 9.48597L28.5187 9.96597L28.7173 10.946L31.0853 10.466L30.8867 9.48597ZM28.1377 10.595L32.4257 25.411L33.3863 25.133L29.0983 10.317L28.1377 10.595ZM32.906 24.772H32.362V25.772H32.906V24.772ZM32.8434 25.4072L37.0034 10.5912L36.0406 10.3208L31.8806 25.1368L32.8434 25.4072ZM36.6226 9.96623L34.2866 9.48623L34.0854 10.4658L36.4214 10.9458L36.6226 9.96623ZM34.686 9.976V8.792H33.686V9.976H34.686ZM34.186 9.292H40.234V8.292H34.186V9.292ZM39.734 8.792V9.976H40.734V8.792H39.734ZM40.1052 9.49288L38.6652 9.87688L38.9228 10.8431L40.3628 10.4591L40.1052 9.49288ZM38.6727 9.87493C38.4332 9.93481 38.215 10.0423 38.0259 10.1999L38.6661 10.9681C38.733 10.9123 38.8135 10.8705 38.9153 10.8451L38.6727 9.87493ZM38.0337 10.1936C37.8061 10.3756 37.6907 10.6359 37.6339 10.8915L38.6101 11.1085C38.6386 10.9801 38.6725 10.9631 38.6583 10.9744L38.0337 10.1936ZM37.6421 10.8597L32.9381 26.9557L33.8979 27.2363L38.6019 11.1403L37.6421 10.8597ZM33.418 26.596H30.986V27.596H33.418V26.596ZM31.4651 26.9531L27.4651 13.5451L26.5069 13.8309L30.5069 27.2389L31.4651 26.9531ZM27.4586 13.5248L26.5306 10.8368L25.5854 11.1632L26.5134 13.8512L27.4586 13.5248ZM41.4448 15.288L41.07 14.957L41.0696 14.9574L41.4448 15.288ZM49.5088 14.552L49.8393 14.1768L49.8393 14.1768L49.5088 14.552ZM50.8208 18.808L51.3195 18.8436L51.3196 18.8413L50.8208 18.808ZM50.7248 19.64V20.14H51.1483L51.2179 19.7222L50.7248 19.64ZM41.6048 19.64H41.1048V20.14H41.6048V19.64ZM41.6048 18.424V17.924H41.1048V18.424H41.6048ZM48.3248 18.424V18.924H48.7347L48.815 18.5221L48.3248 18.424ZM48.3568 18.136L47.8717 18.0147L47.8568 18.0744V18.136H48.3568ZM47.6528 15.576L47.2596 15.8849L47.2657 15.8927L47.2721 15.9002L47.6528 15.576ZM43.2688 15.928L43.6798 16.2126L43.6798 16.2126L43.2688 15.928ZM42.9168 23.32L42.4541 23.5098L42.4559 23.514L42.9168 23.32ZM44.2928 25.08L44.0263 25.5031L44.0354 25.5088L44.0447 25.5141L44.2928 25.08ZM48.4208 25.08L48.1914 24.6356L48.1855 24.6388L48.4208 25.08ZM49.9888 23.672L50.246 23.2433L49.8303 22.9938L49.5682 23.4016L49.9888 23.672ZM50.7888 24.152L51.2691 24.2908L51.3759 23.9212L51.046 23.7233L50.7888 24.152ZM48.9968 26.456L48.7309 26.0325L48.7264 26.0354L48.9968 26.456ZM42.3408 26.456L42.054 26.8656L42.0598 26.8697L42.0658 26.8736L42.3408 26.456ZM40.4208 24.056L39.9592 24.2483L39.9607 24.2518L40.4208 24.056ZM40.2808 20.536C40.2808 18.3764 40.8147 16.7591 41.8199 15.6186L41.0696 14.9574C39.8561 16.3343 39.2808 18.2156 39.2808 20.536H40.2808ZM41.8195 15.619C42.844 14.4592 44.2155 13.868 45.9888 13.868V12.868C43.9646 12.868 42.3068 13.5568 41.07 14.957L41.8195 15.619ZM45.9888 13.868C47.3451 13.868 48.3922 14.2347 49.1782 14.9272L49.8393 14.1768C48.8333 13.2906 47.5338 12.868 45.9888 12.868V13.868ZM49.1782 14.9272C49.9389 15.5973 50.3528 16.5956 50.3528 18.008H51.3528C51.3528 16.3911 50.8706 15.0854 49.8393 14.1768L49.1782 14.9272ZM50.3528 18.008C50.3528 18.2062 50.3428 18.4609 50.3219 18.7747L51.3196 18.8413C51.3414 18.5151 51.3528 18.2364 51.3528 18.008H50.3528ZM50.322 18.7724C50.3016 19.0578 50.2713 19.3194 50.2316 19.5578L51.2179 19.7222C51.2635 19.4486 51.2972 19.1556 51.3195 18.8436L50.322 18.7724ZM50.7248 19.14H41.6048V20.14H50.7248V19.14ZM42.1048 19.64V18.424H41.1048V19.64H42.1048ZM41.6048 18.924H48.3248V17.924H41.6048V18.924ZM48.815 18.5221C48.8412 18.3914 48.8568 18.2618 48.8568 18.136H47.8568C47.8568 18.1809 47.851 18.2432 47.8345 18.3259L48.815 18.5221ZM48.8418 18.2573C48.8764 18.1188 48.8888 17.9681 48.8888 17.816H47.8888C47.8888 17.9199 47.8797 17.9826 47.8717 18.0147L48.8418 18.2573ZM48.8888 17.816C48.8888 16.8061 48.6166 15.9364 48.0334 15.2518L47.2721 15.9002C47.6702 16.3676 47.8888 16.9912 47.8888 17.816H48.8888ZM48.0459 15.2671C47.4667 14.5299 46.6386 14.18 45.6368 14.18V15.18C46.3842 15.18 46.9002 15.4274 47.2596 15.8849L48.0459 15.2671ZM45.6368 14.18C44.4682 14.18 43.526 14.678 42.8577 15.6434L43.6798 16.2126C44.1635 15.514 44.8 15.18 45.6368 15.18V14.18ZM42.8577 15.6434C42.1927 16.6039 41.9048 18.0756 41.9048 19.96H42.9048C42.9048 18.1324 43.1928 16.9161 43.6798 16.2126L42.8577 15.6434ZM41.9048 19.96C41.9048 21.4003 42.0782 22.5933 42.4542 23.5098L43.3793 23.1302C43.0727 22.3827 42.9048 21.3357 42.9048 19.96H41.9048ZM42.4559 23.514C42.8255 24.3917 43.3414 25.0718 44.0263 25.5031L44.5592 24.6569C44.0921 24.3628 43.6907 23.8696 43.3776 23.126L42.4559 23.514ZM44.0447 25.5141C44.7261 25.9035 45.4961 26.092 46.3408 26.092V25.092C45.6494 25.092 45.0541 24.9392 44.5408 24.6459L44.0447 25.5141ZM46.3408 26.092C47.167 26.092 47.9414 25.9023 48.656 25.5212L48.1855 24.6388C47.6201 24.9404 47.0079 25.092 46.3408 25.092V26.092ZM48.6501 25.5243C49.3854 25.1448 49.9756 24.6171 50.4093 23.9424L49.5682 23.4016C49.2339 23.9216 48.7788 24.3326 48.1914 24.6357L48.6501 25.5243ZM49.7315 24.1007L50.5315 24.5807L51.046 23.7233L50.246 23.2433L49.7315 24.1007ZM50.3084 24.0132C50.0681 24.8449 49.5536 25.5159 48.7309 26.0326L49.2626 26.8794C50.2745 26.2441 50.9547 25.3791 51.2691 24.2908L50.3084 24.0132ZM48.7264 26.0354C47.9297 26.5475 46.9098 26.82 45.6368 26.82V27.82C47.0517 27.82 48.2718 27.5165 49.2671 26.8766L48.7264 26.0354ZM45.6368 26.82C44.3862 26.82 43.3897 26.5481 42.6157 26.0384L42.0658 26.8736C43.0411 27.5159 44.242 27.82 45.6368 27.82V26.82ZM42.6275 26.0464C41.8544 25.5052 41.2726 24.781 40.8808 23.8602L39.9607 24.2518C40.4222 25.3364 41.1204 26.2121 42.054 26.8656L42.6275 26.0464ZM40.8823 23.8637C40.4854 22.9112 40.2808 21.8051 40.2808 20.536H39.2808C39.2808 21.9122 39.5028 23.1528 39.9592 24.2483L40.8823 23.8637ZM53.7555 8.056L53.8335 7.5621L53.8288 7.5614L53.7555 8.056ZM52.0275 7.8H51.5275V8.23138L51.9542 8.2946L52.0275 7.8ZM52.0275 6.744L51.8921 6.26267L51.5275 6.36523V6.744H52.0275ZM54.2355 6.296L54.3025 6.79162L54.3135 6.78988L54.2355 6.296ZM56.4755 6.072L56.8134 5.70342L56.6633 5.56589L56.4599 5.57224L56.4755 6.072ZM56.8595 6.424H57.3595V6.20405L57.1974 6.05542L56.8595 6.424ZM56.8595 25.432H56.3595V25.7306L56.6225 25.8722L56.8595 25.432ZM57.8515 25.848L57.6934 26.3223L57.7054 26.3264L57.7177 26.3298L57.8515 25.848ZM62.2035 24.696L62.5977 25.0037L62.6012 24.999L62.2035 24.696ZM63.2595 20.376L62.7596 20.3651L62.7595 20.3706L63.2595 20.376ZM62.3635 16.28L61.9751 16.5949L61.9794 16.6001L62.3635 16.28ZM57.8835 15.512L58.093 15.966L58.1001 15.9627L58.1071 15.9592L57.8835 15.512ZM56.3795 16.6L55.8845 16.6707L56.0302 17.6901L56.7412 16.9452L56.3795 16.6ZM56.2515 15.704L55.85 15.4061L55.7275 15.5712L55.7565 15.7747L56.2515 15.704ZM58.0755 14.04L57.8182 13.6112L57.8128 13.6146L58.0755 14.04ZM63.3875 14.04L63.1356 14.4719L63.1426 14.476L63.1497 14.4799L63.3875 14.04ZM65.2755 16.088L64.8283 16.3116L64.8283 16.3116L65.2755 16.088ZM64.1875 25.272L64.5638 25.6013L64.5638 25.6013L64.1875 25.272ZM56.2515 27L56.1302 27.4851L56.1302 27.4851L56.2515 27ZM54.3635 26.424H53.8635V26.756L54.1695 26.8848L54.3635 26.424ZM54.8635 8.76C54.8635 8.47487 54.7912 8.1862 54.5899 7.95319C54.3894 7.72097 54.1147 7.60652 53.8335 7.56212L53.6775 8.54988C53.8016 8.56948 53.831 8.60437 53.8331 8.60681C53.8345 8.60846 53.8635 8.63979 53.8635 8.76H54.8635ZM53.8288 7.5614L52.1008 7.3054L51.9542 8.2946L53.6822 8.5506L53.8288 7.5614ZM52.5275 7.8V6.744H51.5275V7.8H52.5275ZM52.1629 7.22532C52.8206 7.04035 53.5335 6.89541 54.3025 6.7915L54.1685 5.8005C53.3589 5.90992 52.5998 6.06365 51.8921 6.26267L52.1629 7.22532ZM54.3135 6.78988C55.1075 6.66451 55.833 6.59232 56.4911 6.57175L56.4599 5.57224C55.7527 5.59434 54.9849 5.67148 54.1575 5.80212L54.3135 6.78988ZM56.1376 6.44058L56.5216 6.79258L57.1974 6.05542L56.8134 5.70342L56.1376 6.44058ZM56.3595 6.424V25.432H57.3595V6.424H56.3595ZM56.6225 25.8722C56.931 26.0384 57.2894 26.1877 57.6934 26.3223L58.0096 25.3737C57.6456 25.2523 57.3427 25.1243 57.0966 24.9918L56.6225 25.8722ZM57.7177 26.3298C58.1556 26.4514 58.6504 26.508 59.1955 26.508V25.508C58.7166 25.508 58.3154 25.4579 57.9853 25.3662L57.7177 26.3298ZM59.1955 26.508C60.6391 26.508 61.8016 26.0236 62.5977 25.0036L61.8093 24.3884C61.2401 25.1177 60.3973 25.508 59.1955 25.508V26.508ZM62.6012 24.999C63.3825 23.9735 63.7378 22.4003 63.7595 20.3814L62.7595 20.3706C62.7386 22.3197 62.3898 23.6265 61.8058 24.393L62.6012 24.999ZM63.7594 20.3869C63.8025 18.4035 63.511 16.876 62.7476 15.9599L61.9794 16.6001C62.496 17.22 62.8018 18.4232 62.7596 20.3651L63.7594 20.3869ZM62.7519 15.9651C62.0095 15.0495 60.998 14.596 59.7715 14.596V15.596C60.721 15.596 61.4375 15.9318 61.9751 16.5949L62.7519 15.9651ZM59.7715 14.596C59.0004 14.596 58.2929 14.7483 57.6599 15.0648L58.1071 15.9592C58.5835 15.721 59.1346 15.596 59.7715 15.596V14.596ZM57.674 15.058C57.0587 15.342 56.5065 15.7428 56.0178 16.2548L56.7412 16.9452C57.1485 16.5185 57.5989 16.194 58.093 15.966L57.674 15.058ZM56.8745 16.5293L56.7465 15.6333L55.7565 15.7747L55.8845 16.6707L56.8745 16.5293ZM56.653 16.0019C57.1046 15.3933 57.6649 14.8813 58.3382 14.4654L57.8128 13.6146C57.0354 14.0947 56.3797 14.692 55.85 15.4061L56.653 16.0019ZM58.3327 14.4687C58.9874 14.0759 59.7905 13.868 60.7635 13.868V12.868C59.6458 12.868 58.6569 13.1081 57.8183 13.6113L58.3327 14.4687ZM60.7635 13.868C61.6657 13.868 62.4518 14.073 63.1356 14.4719L63.6394 13.6081C62.7872 13.111 61.8239 12.868 60.7635 12.868V13.868ZM63.1497 14.4799C63.8341 14.8498 64.3969 15.4488 64.8283 16.3116L65.7227 15.8644C65.2155 14.8499 64.5196 14.0835 63.6253 13.6001L63.1497 14.4799ZM64.8283 16.3116C65.2514 17.1578 65.4795 18.2896 65.4795 19.736H66.4795C66.4795 18.1957 66.2383 16.8955 65.7227 15.8644L64.8283 16.3116ZM65.4795 19.736C65.4795 21.9753 64.9057 23.6919 63.8112 24.9427L64.5638 25.6013C65.8586 24.1215 66.4795 22.1474 66.4795 19.736H65.4795ZM63.8112 24.9427C62.7341 26.1737 61.159 26.82 59.0035 26.82V27.82C61.3706 27.82 63.2515 27.101 64.5638 25.6013L63.8112 24.9427ZM59.0035 26.82C58.0584 26.82 57.1822 26.7173 56.3728 26.5149L56.1302 27.4851C57.0275 27.7094 57.9859 27.82 59.0035 27.82V26.82ZM56.3728 26.5149C55.5249 26.303 54.9261 26.1184 54.5575 25.9632L54.1695 26.8848C54.6116 27.071 55.2715 27.2704 56.1302 27.4851L56.3728 26.5149ZM54.8635 26.424V8.76H53.8635V26.424H54.8635ZM73.6493 25.592L73.7278 25.0982L73.7234 25.0975L73.6493 25.592ZM75.0573 25.816H75.5573V25.3893L75.1358 25.3222L75.0573 25.816ZM75.0573 27V27.5H75.5573V27H75.0573ZM68.4653 27H67.9653V27.5H68.4653V27ZM68.4653 25.816L68.3867 25.3222L67.9653 25.3893V25.816H68.4653ZM69.8733 25.592L69.7991 25.0975L69.7947 25.0982L69.8733 25.592ZM69.9053 15.416L69.8373 15.9114L69.8451 15.9124L69.8529 15.9133L69.9053 15.416ZM68.2733 15.192H67.7733V15.6281L68.2053 15.6874L68.2733 15.192ZM68.2733 14.04L68.1241 13.5628L67.7733 13.6724V14.04H68.2733ZM70.4493 13.592L70.5045 14.0891L70.5162 14.0875L70.4493 13.592ZM72.6573 13.4L73.0258 13.0621L72.8709 12.8931L72.6416 12.9002L72.6573 13.4ZM73.0093 13.784H73.5093V13.5895L73.3778 13.4461L73.0093 13.784ZM72.7213 11.032L73.0624 11.3975L73.0687 11.3916L73.0748 11.3856L72.7213 11.032ZM70.2253 11.032L69.8717 11.3856L69.8778 11.3916L69.8841 11.3975L70.2253 11.032ZM70.2253 8.6L70.5664 8.96553L70.5727 8.95965L70.5788 8.95355L70.2253 8.6ZM72.7213 8.6L72.3677 8.95355L72.3738 8.95965L72.3801 8.96553L72.7213 8.6ZM72.5093 24.856C72.5093 25.1516 72.5842 25.4492 72.7919 25.6881C72.9991 25.9263 73.283 26.0427 73.5751 26.0865L73.7234 25.0975C73.5888 25.0773 73.5528 25.039 73.5466 25.0319C73.541 25.0255 73.5093 24.9871 73.5093 24.856H72.5093ZM73.5707 26.0858L74.9787 26.3098L75.1358 25.3222L73.7278 25.0982L73.5707 26.0858ZM74.5573 25.816V27H75.5573V25.816H74.5573ZM75.0573 26.5H68.4653V27.5H75.0573V26.5ZM68.9653 27V25.816H67.9653V27H68.9653ZM68.5438 26.3098L69.9518 26.0858L69.7947 25.0982L68.3867 25.3222L68.5438 26.3098ZM69.9474 26.0865C70.2395 26.0427 70.5234 25.9263 70.7306 25.6881C70.9383 25.4492 71.0133 25.1516 71.0133 24.856H70.0133C70.0133 24.9871 69.9815 25.0255 69.9759 25.0319C69.9697 25.039 69.9337 25.0773 69.7991 25.0975L69.9474 26.0865ZM71.0133 24.856V16.12H70.0133V24.856H71.0133ZM71.0133 16.12C71.0133 15.8318 70.9446 15.5345 70.7397 15.2972C70.5318 15.0565 70.2458 14.9491 69.9576 14.9187L69.8529 15.9133C69.9119 15.9195 69.9463 15.9309 69.9637 15.9389C69.9794 15.946 69.9828 15.9508 69.9828 15.9508C69.9832 15.9512 69.9898 15.9585 69.9972 15.9825C70.005 16.0081 70.0133 16.0519 70.0133 16.12H71.0133ZM69.9732 14.9206L68.3412 14.6966L68.2053 15.6874L69.8373 15.9114L69.9732 14.9206ZM68.7733 15.192V14.04H67.7733V15.192H68.7733ZM68.4224 14.5172C69.0721 14.3142 69.7658 14.171 70.5045 14.0889L70.394 13.0951C69.5967 13.1837 68.8397 13.3391 68.1241 13.5628L68.4224 14.5172ZM70.5162 14.0875C71.2912 13.9828 72.0099 13.9205 72.6729 13.8998L72.6416 12.9002C71.9393 12.9222 71.1859 12.9879 70.3823 13.0965L70.5162 14.0875ZM72.2887 13.7379L72.6407 14.1219L73.3778 13.4461L73.0258 13.0621L72.2887 13.7379ZM72.5093 13.784V24.856H73.5093V13.784H72.5093ZM72.7013 9.816C72.7013 10.1864 72.5856 10.4606 72.3677 10.6784L73.0748 11.3856C73.4969 10.9634 73.7013 10.427 73.7013 9.816H72.7013ZM72.3801 10.6665C72.1682 10.8642 71.8815 10.98 71.4733 10.98V11.98C72.089 11.98 72.6343 11.7971 73.0624 11.3975L72.3801 10.6665ZM71.4733 10.98C71.065 10.98 70.7783 10.8642 70.5664 10.6665L69.8841 11.3975C70.3122 11.7971 70.8575 11.98 71.4733 11.98V10.98ZM70.5788 10.6784C70.3609 10.4606 70.2453 10.1864 70.2453 9.816H69.2453C69.2453 10.427 69.4496 10.9634 69.8717 11.3856L70.5788 10.6784ZM70.2453 9.816C70.2453 9.41693 70.3651 9.15344 70.5664 8.96553L69.8841 8.23447C69.4454 8.64389 69.2453 9.19106 69.2453 9.816H70.2453ZM70.5788 8.95355C70.7924 8.73994 71.0749 8.62 71.4733 8.62V7.62C70.8476 7.62 70.2981 7.82006 69.8717 8.24644L70.5788 8.95355ZM71.4733 8.62C71.8716 8.62 72.1541 8.73994 72.3677 8.95355L73.0748 8.24644C72.6484 7.82006 72.0989 7.62 71.4733 7.62V8.62ZM72.3801 8.96553C72.5814 9.15344 72.7013 9.41693 72.7013 9.816H73.7013C73.7013 9.19106 73.5011 8.64389 73.0624 8.23447L72.3801 8.96553ZM85.699 27H85.199V27.5H85.699V27ZM85.699 25.816L85.6128 25.3235L85.199 25.3959V25.816H85.699ZM86.979 25.592L87.0652 26.0845L87.0764 26.0826L87.0875 26.0801L86.979 25.592ZM87.427 25.368L87.1069 24.9839L87.0895 24.9984L87.0734 25.0144L87.427 25.368ZM87.075 16.056L86.6337 16.2914L86.64 16.3025L87.075 16.056ZM82.787 15.544L82.5966 15.0816L82.5917 15.0837L82.787 15.544ZM80.867 16.856L80.3693 16.8078L80.2351 18.195L81.2206 17.2096L80.867 16.856ZM80.963 15.864L80.5586 15.5699L80.4785 15.6802L80.4653 15.8158L80.963 15.864ZM83.331 13.912L83.5186 14.3755L83.5186 14.3755L83.331 13.912ZM89.251 14.712L88.8259 14.9752L88.8259 14.9752L89.251 14.712ZM90.723 25.592L90.7999 25.0979L90.7972 25.0975L90.723 25.592ZM92.163 25.816H92.663V25.3878L92.2399 25.3219L92.163 25.816ZM92.163 27V27.5H92.663V27H92.163ZM77.027 27H76.527V27.5H77.027V27ZM77.027 25.816L76.9484 25.3222L76.527 25.3893V25.816H77.027ZM78.435 25.592L78.3608 25.0975L78.3564 25.0982L78.435 25.592ZM78.467 15.416L78.545 14.922L78.535 14.9206L78.467 15.416ZM76.835 15.192H76.335V15.6281L76.767 15.6874L76.835 15.192ZM76.835 14.04L76.6913 13.5611L76.335 13.668V14.04H76.835ZM78.851 13.592L78.7783 13.0973L78.7761 13.0976L78.851 13.592ZM80.867 13.4L81.2072 13.0336L81.056 12.8932L80.8498 12.9003L80.867 13.4ZM81.315 13.816L81.8119 13.7608L81.7914 13.5761L81.6552 13.4496L81.315 13.816ZM81.571 16.12H82.071V16.0923L82.0679 16.0648L81.571 16.12ZM82.179 25.592L82.2632 25.0991L82.257 25.0981L82.179 25.592ZM83.491 25.816H83.991V25.3941L83.5751 25.3231L83.491 25.816ZM83.491 27V27.5H83.991V27H83.491ZM86.199 27V25.816H85.199V27H86.199ZM85.7852 26.3085L87.0652 26.0845L86.8928 25.0995L85.6128 25.3235L85.7852 26.3085ZM87.0875 26.0801C87.3446 26.023 87.589 25.9131 87.7806 25.7216L87.0734 25.0144C87.0516 25.0363 86.9974 25.0757 86.8705 25.1039L87.0875 26.0801ZM87.7471 25.7521C88.0301 25.5163 88.119 25.1758 88.119 24.856H87.119C87.119 24.9298 87.1087 24.9688 87.1028 24.9844C87.0983 24.9964 87.0982 24.9912 87.1069 24.9839L87.7471 25.7521ZM88.119 24.856V18.936H87.119V24.856H88.119ZM88.119 18.936C88.119 17.6252 87.9362 16.5615 87.51 15.8095L86.64 16.3025C86.9392 16.8305 87.119 17.6868 87.119 18.936H88.119ZM87.5162 15.8207C87.0557 14.9573 86.1658 14.596 85.059 14.596V15.596C85.9575 15.596 86.4116 15.8747 86.6338 16.2913L87.5162 15.8207ZM85.059 14.596C84.2048 14.596 83.3827 14.758 82.5966 15.0817L82.9774 16.0063C83.6419 15.7327 84.3346 15.596 85.059 15.596V14.596ZM82.5917 15.0837C81.8248 15.4091 81.1319 15.884 80.5134 16.5024L81.2206 17.2096C81.7541 16.676 82.3412 16.2763 82.9823 16.0043L82.5917 15.0837ZM81.3647 16.9042L81.4607 15.9122L80.4653 15.8158L80.3693 16.8078L81.3647 16.9042ZM81.3674 16.1581C82.0062 15.2797 82.7253 14.6966 83.5186 14.3755L83.1434 13.4485C82.1447 13.8528 81.2852 14.5709 80.5586 15.5699L81.3674 16.1581ZM83.5186 14.3755C84.3554 14.0368 85.2198 13.868 86.115 13.868V12.868C85.0902 12.868 84.0986 13.0619 83.1434 13.4485L83.5186 14.3755ZM86.115 13.868C87.5639 13.868 88.3999 14.2871 88.8259 14.9752L89.6761 14.4488C88.9927 13.3449 87.7381 12.868 86.115 12.868V13.868ZM88.8259 14.9752C89.3119 15.7604 89.583 16.9135 89.583 18.488H90.583C90.583 16.8199 90.2994 15.4556 89.6761 14.4488L88.8259 14.9752ZM89.583 18.488V24.856H90.583V18.488H89.583ZM89.583 24.856C89.583 25.1516 89.6579 25.4492 89.8657 25.6881C90.0728 25.9263 90.3568 26.0427 90.6488 26.0865L90.7972 25.0975C90.6626 25.0773 90.6265 25.039 90.6203 25.0319C90.6147 25.0255 90.583 24.9871 90.583 24.856H89.583ZM90.6461 26.0861L92.0861 26.3101L92.2399 25.3219L90.7999 25.0979L90.6461 26.0861ZM91.663 25.816V27H92.663V25.816H91.663ZM92.163 26.5H85.699V27.5H92.163V26.5ZM77.527 27V25.816H76.527V27H77.527ZM77.1056 26.3098L78.5136 26.0858L78.3564 25.0982L76.9484 25.3222L77.1056 26.3098ZM78.5092 26.0865C78.8012 26.0427 79.0852 25.9263 79.2923 25.6881C79.5001 25.4492 79.575 25.1516 79.575 24.856H78.575C78.575 24.9871 78.5433 25.0255 78.5377 25.0319C78.5315 25.039 78.4954 25.0773 78.3608 25.0975L78.5092 26.0865ZM79.575 24.856V16.12H78.575V24.856H79.575ZM79.575 16.12C79.575 15.8349 79.5027 15.5462 79.3014 15.3132C79.1009 15.081 78.8262 14.9665 78.545 14.9221L78.389 15.9099C78.5131 15.9295 78.5425 15.9644 78.5446 15.9668C78.546 15.9685 78.575 15.9998 78.575 16.12H79.575ZM78.535 14.9206L76.903 14.6966L76.767 15.6874L78.399 15.9114L78.535 14.9206ZM77.335 15.192V14.04H76.335V15.192H77.335ZM76.9787 14.5189C77.5947 14.3341 78.2437 14.1897 78.9259 14.0864L78.7761 13.0976C78.0503 13.2076 77.3553 13.3619 76.6913 13.5611L76.9787 14.5189ZM78.9237 14.0867C79.6339 13.9822 80.2872 13.9203 80.8842 13.8997L80.8498 12.9003C80.2095 12.9224 79.5187 12.9884 78.7783 13.0973L78.9237 14.0867ZM80.5268 13.7664L80.9748 14.1824L81.6552 13.4496L81.2072 13.0336L80.5268 13.7664ZM80.8181 13.8712L81.0741 16.1752L82.0679 16.0648L81.8119 13.7608L80.8181 13.8712ZM81.071 16.12V24.856H82.071V16.12H81.071ZM81.071 24.856C81.071 25.1458 81.1403 25.4397 81.3375 25.6784C81.5369 25.9198 81.8137 26.0405 82.101 26.0859L82.257 25.0981C82.139 25.0795 82.1118 25.0456 82.1085 25.0416C82.103 25.035 82.071 24.9928 82.071 24.856H81.071ZM82.0949 26.0849L83.4069 26.3089L83.5751 25.3231L82.2631 25.0991L82.0949 26.0849ZM82.991 25.816V27H83.991V25.816H82.991ZM83.491 26.5H77.027V27.5H83.491V26.5ZM94.9885 26.424L94.679 26.8168L94.6848 26.8212L94.9885 26.424ZM94.7005 21.912L95.0541 22.2656L95.0541 22.2656L94.7005 21.912ZM96.6845 20.76L96.827 21.2393L96.827 21.2393L96.6845 20.76ZM99.0845 20.312L99.1239 20.8105L99.1252 20.8103L99.0845 20.312ZM102.22 20.056H102.72V19.5135L102.18 19.5577L102.22 20.056ZM102.22 21.272L102.267 21.7698L102.72 21.7272V21.272H102.22ZM99.5005 21.528L99.5345 22.027L99.5474 22.0258L99.5005 21.528ZM97.3245 22.168L97.0354 21.7599L97.0273 21.7659L97.3245 22.168ZM97.0685 25.144L96.7149 25.4976L96.7206 25.5033L96.7265 25.5088L97.0685 25.144ZM100.653 25.144L100.446 24.6888L100.44 24.6913L100.653 25.144ZM102.253 23.96L102.704 23.746L102.355 23.0092L101.857 23.6543L102.253 23.96ZM102.541 24.568L102.975 24.8148L103.104 24.5888L102.992 24.354L102.541 24.568ZM100.557 26.52L100.806 26.9535L100.809 26.9515L100.557 26.52ZM94.3165 16.184L93.8456 16.0158L93.7392 16.3138L93.9629 16.5376L94.3165 16.184ZM96.2365 14.136L96.4561 14.5852L96.4561 14.5852L96.2365 14.136ZM103.021 14.616L102.662 14.9647L102.667 14.9696L103.021 14.616ZM104.877 25.56L104.925 25.0624L104.922 25.0621L104.877 25.56ZM106.189 25.688H106.689V25.2344L106.237 25.1904L106.189 25.688ZM106.189 26.776L106.332 27.2549L106.689 27.148V26.776H106.189ZM105.197 27.032L105.312 27.5184L105.197 27.032ZM102.413 26.648L102.059 27.0016L102.064 27.0066L102.069 27.0115L102.413 26.648ZM101.741 25.048H101.241V25.0782L101.244 25.1082L101.741 25.048ZM101.005 16.024L100.643 16.3696L100.651 16.3776L100.659 16.3853L101.005 16.024ZM96.7485 15.64L96.5813 15.1688L96.5813 15.1688L96.7485 15.64ZM94.9245 16.792L94.5709 17.1456L94.9176 17.4922L95.2711 17.1524L94.9245 16.792ZM97.6765 26.756C96.7004 26.756 95.9162 26.504 95.2922 26.0268L94.6848 26.8212C95.5114 27.4533 96.5192 27.756 97.6765 27.756V26.756ZM95.2979 26.0313C94.7351 25.5878 94.4325 24.9448 94.4325 24.024H93.4325C93.4325 25.1939 93.8339 26.1509 94.6791 26.8167L95.2979 26.0313ZM94.4325 24.024C94.4325 23.2272 94.657 22.6626 95.0541 22.2656L94.3469 21.5584C93.72 22.1854 93.4325 23.0288 93.4325 24.024H94.4325ZM95.0541 22.2656C95.5233 21.7963 96.1099 21.4525 96.827 21.2393L96.542 20.2807C95.6805 20.5369 94.9444 20.961 94.3469 21.5584L95.0541 22.2656ZM96.827 21.2393C97.5831 21.0145 98.3486 20.8717 99.1239 20.8104L99.0451 19.8136C98.1991 19.8803 97.3645 20.0362 96.542 20.2807L96.827 21.2393ZM99.1252 20.8103L102.261 20.5543L102.18 19.5577L99.0438 19.8137L99.1252 20.8103ZM101.72 20.056V21.272H102.72V20.056H101.72ZM102.174 20.7742L99.4536 21.0302L99.5474 22.0258L102.267 21.7698L102.174 20.7742ZM99.4665 21.0292C98.4787 21.0965 97.6511 21.324 97.0355 21.76L97.6135 22.576C98.0219 22.2867 98.6449 22.0875 99.5345 22.0268L99.4665 21.0292ZM97.0273 21.7659C96.3841 22.2413 96.0885 22.9499 96.0885 23.8H97.0885C97.0885 23.1994 97.2836 22.82 97.6217 22.5701L97.0273 21.7659ZM96.0885 23.8C96.0885 24.4706 96.2774 25.06 96.7149 25.4976L97.4221 24.7904C97.2196 24.588 97.0885 24.2814 97.0885 23.8H96.0885ZM96.7265 25.5088C97.1929 25.946 97.8367 26.124 98.5725 26.124V25.124C97.9856 25.124 97.6268 24.982 97.4105 24.7792L96.7265 25.5088ZM98.5725 26.124C99.355 26.124 100.12 25.9456 100.865 25.5967L100.44 24.6913C99.8192 24.9824 99.198 25.124 98.5725 25.124V26.124ZM100.859 25.5992C101.616 25.2554 102.223 24.8161 102.648 24.2657L101.857 23.6543C101.557 24.0426 101.097 24.3926 100.446 24.6888L100.859 25.5992ZM101.801 24.174L102.089 24.782L102.992 24.354L102.704 23.746L101.801 24.174ZM102.106 24.3212C101.706 25.0254 101.112 25.6156 100.304 26.0885L100.809 26.9515C101.751 26.4004 102.479 25.6893 102.975 24.8148L102.106 24.3212ZM100.307 26.0865C99.536 26.53 98.6632 26.756 97.6765 26.756V27.756C98.8231 27.756 99.8703 27.4913 100.806 26.9535L100.307 26.0865ZM94.7874 16.3522C95.0579 15.5946 95.5976 15.0049 96.4561 14.5852L96.0169 13.6868C94.9554 14.2058 94.2151 14.9814 93.8456 16.0158L94.7874 16.3522ZM96.4561 14.5852C97.3377 14.1542 98.3593 13.932 99.5325 13.932V12.932C98.2311 12.932 97.0553 13.1791 96.0169 13.6868L96.4561 14.5852ZM99.5325 13.932C101.012 13.932 102.022 14.3063 102.662 14.9647L103.379 14.2673C102.483 13.347 101.168 12.932 99.5325 12.932V13.932ZM102.667 14.9696C103.305 15.6073 103.673 16.6382 103.673 18.168H104.673C104.673 16.4978 104.272 15.1607 103.374 14.2624L102.667 14.9696ZM103.673 18.168V24.792H104.673V18.168H103.673ZM103.673 24.792C103.673 25.1071 103.752 25.4253 103.98 25.6739C104.207 25.9221 104.517 26.0294 104.831 26.0579L104.922 25.0621C104.766 25.0479 104.724 25.0059 104.717 24.9981C104.71 24.9907 104.673 24.9462 104.673 24.792H103.673ZM104.828 26.0576L106.14 26.1856L106.237 25.1904L104.925 25.0624L104.828 26.0576ZM105.689 25.688V26.776H106.689V25.688H105.689ZM106.045 26.2971C105.846 26.3567 105.527 26.4393 105.081 26.5456L105.312 27.5184C105.762 27.4113 106.104 27.3233 106.332 27.2549L106.045 26.2971ZM105.081 26.5456C104.663 26.645 104.287 26.692 103.949 26.692V27.692C104.378 27.692 104.834 27.6324 105.312 27.5184L105.081 26.5456ZM103.949 26.692C103.408 26.692 103.028 26.5417 102.756 26.2845L102.069 27.0115C102.565 27.4797 103.209 27.692 103.949 27.692V26.692ZM102.766 26.2944C102.508 26.0362 102.314 25.6227 102.237 24.9878L101.244 25.1082C101.338 25.8813 101.592 26.5344 102.059 27.0016L102.766 26.2944ZM102.241 25.048V18.52H101.241V25.048H102.241ZM102.241 18.52C102.241 17.2852 101.992 16.2768 101.35 15.6627L100.659 16.3853C100.998 16.7098 101.241 17.3655 101.241 18.52H102.241ZM101.366 15.6784C100.767 15.0522 99.8849 14.788 98.8285 14.788V15.788C99.7347 15.788 100.304 16.0145 100.643 16.3696L101.366 15.6784ZM98.8285 14.788C98.0481 14.788 97.2981 14.9144 96.5813 15.1688L96.9157 16.1112C97.5216 15.8962 98.1582 15.788 98.8285 15.788V14.788ZM96.5813 15.1688C95.8467 15.4294 95.1788 15.8538 94.5779 16.4316L95.2711 17.1524C95.7795 16.6635 96.3276 16.3199 96.9157 16.1112L96.5813 15.1688ZM95.2781 16.4384L94.6701 15.8304L93.9629 16.5376L94.5709 17.1456L95.2781 16.4384ZM111.995 16.728L111.555 16.4899L111.475 16.6378L111.501 16.804L111.995 16.728ZM113.147 15.192L112.786 14.8457L112.786 14.846L113.147 15.192ZM114.875 13.88L114.646 13.4356L114.64 13.4388L114.875 13.88ZM117.691 13.464L117.586 13.9529L117.593 13.9543L117.691 13.464ZM118.491 13.72L118.99 13.6867L118.971 13.4009L118.715 13.2728L118.491 13.72ZM118.459 15.928L117.96 15.8896L117.96 15.9017L118.459 15.928ZM118.171 18.168V18.668H118.573L118.659 18.2748L118.171 18.168ZM116.987 18.168L116.496 18.2627L116.574 18.668H116.987V18.168ZM116.635 16.344L117.126 16.2493L117.123 16.2359L117.12 16.2227L116.635 16.344ZM116.347 15.8L115.993 16.1536L116.009 16.1696L116.027 16.1841L116.347 15.8ZM113.915 16.12L114.121 16.5758L114.133 16.5701L113.915 16.12ZM112.123 17.56L111.629 17.636L111.801 18.7557L112.512 17.8739L112.123 17.56ZM112.571 16.696H113.071V16.6659L113.067 16.636L112.571 16.696ZM113.243 25.592L113.297 25.0949L113.29 25.0943L113.243 25.592ZM115.579 25.848H116.079V25.3998L115.633 25.351L115.579 25.848ZM115.579 27V27.5H116.079V27H115.579ZM108.027 27H107.527V27.5H108.027V27ZM108.027 25.816L107.948 25.3222L107.527 25.3893V25.816H108.027ZM109.435 25.592L109.361 25.0975L109.356 25.0982L109.435 25.592ZM109.435 15.384L109.509 14.8895L109.502 14.8884L109.495 14.8876L109.435 15.384ZM107.835 15.192H107.335V15.6356L107.775 15.6884L107.835 15.192ZM107.835 14.04L107.687 13.5625L107.335 13.6716V14.04H107.835ZM109.819 13.592L109.746 13.0973L109.744 13.0976L109.819 13.592ZM111.835 13.4L112.189 13.0464L112.035 12.8928L111.818 12.9003L111.835 13.4ZM112.219 13.784L112.715 13.724L112.695 13.5526L112.573 13.4304L112.219 13.784ZM112.435 16.9661C112.687 16.5009 113.042 16.0244 113.508 15.538L112.786 14.846C112.271 15.3836 111.858 15.9311 111.555 16.4899L112.435 16.9661ZM113.508 15.5383C113.984 15.0422 114.518 14.6372 115.11 14.3212L114.64 13.4388C113.952 13.8055 113.334 14.2751 112.786 14.8457L113.508 15.5383ZM115.104 14.3243C115.701 14.0162 116.295 13.868 116.891 13.868V12.868C116.122 12.868 115.371 13.0611 114.646 13.4357L115.104 14.3243ZM116.891 13.868C117.082 13.868 117.312 13.8942 117.586 13.9529L117.796 12.9751C117.472 12.9058 117.17 12.868 116.891 12.868V13.868ZM117.593 13.9543C117.884 14.0125 118.105 14.0862 118.267 14.1672L118.715 13.2728C118.45 13.1405 118.138 13.0435 117.789 12.9737L117.593 13.9543ZM117.992 13.7533C118.033 14.3636 118.023 15.0748 117.96 15.8897L118.958 15.9663C119.023 15.1172 119.035 14.3564 118.99 13.6867L117.992 13.7533ZM117.96 15.9017C117.918 16.6895 117.825 17.4088 117.683 18.0612L118.659 18.2748C118.815 17.5618 118.914 16.7878 118.958 15.9543L117.96 15.9017ZM118.171 17.668H116.987V18.668H118.171V17.668ZM117.478 18.0733L117.126 16.2493L116.144 16.4387L116.496 18.2627L117.478 18.0733ZM117.12 16.2227C117.044 15.9195 116.912 15.6198 116.667 15.4159L116.027 16.1841C116.038 16.1936 116.098 16.2565 116.15 16.4653L117.12 16.2227ZM116.701 15.4464C116.459 15.2052 116.131 15.14 115.835 15.14V16.14C115.917 16.14 115.965 16.1495 115.99 16.1572C116.012 16.1643 116.007 16.1671 115.993 16.1536L116.701 15.4464ZM115.835 15.14C115.128 15.14 114.414 15.3232 113.697 15.6699L114.133 16.5701C114.739 16.2768 115.305 16.14 115.835 16.14V15.14ZM113.709 15.6643C112.965 16.0003 112.308 16.5342 111.734 17.2461L112.512 17.8739C113.005 17.2631 113.542 16.837 114.121 16.5757L113.709 15.6643ZM112.617 17.484L112.489 16.652L111.501 16.804L111.629 17.636L112.617 17.484ZM112.071 16.696V24.856H113.071V16.696H112.071ZM112.071 24.856C112.071 25.1606 112.148 25.4702 112.37 25.7131C112.591 25.9557 112.892 26.0609 113.196 26.0897L113.29 25.0943C113.146 25.0805 113.111 25.0416 113.108 25.0389C113.106 25.0364 113.071 24.9994 113.071 24.856H112.071ZM113.189 26.089L115.525 26.345L115.633 25.351L113.297 25.095L113.189 26.089ZM115.079 25.848V27H116.079V25.848H115.079ZM115.579 26.5H108.027V27.5H115.579V26.5ZM108.527 27V25.816H107.527V27H108.527ZM108.106 26.3098L109.514 26.0858L109.356 25.0982L107.948 25.3222L108.106 26.3098ZM109.509 26.0865C109.801 26.0427 110.085 25.9263 110.292 25.6881C110.5 25.4492 110.575 25.1516 110.575 24.856H109.575C109.575 24.9871 109.543 25.0255 109.538 25.0319C109.531 25.039 109.495 25.0773 109.361 25.0975L109.509 26.0865ZM110.575 24.856V16.184H109.575V24.856H110.575ZM110.575 16.184C110.575 15.8779 110.505 15.5697 110.305 15.3197C110.101 15.0639 109.813 14.9351 109.509 14.8895L109.361 15.8785C109.484 15.8969 109.516 15.9334 109.525 15.9443C109.538 15.961 109.575 16.0208 109.575 16.184H110.575ZM109.495 14.8876L107.895 14.6956L107.775 15.6884L109.375 15.8804L109.495 14.8876ZM108.335 15.192V14.04H107.335V15.192H108.335ZM107.983 14.5175C108.576 14.3337 109.212 14.1896 109.894 14.0864L109.744 13.0976C109.018 13.2077 108.332 13.3623 107.687 13.5625L107.983 14.5175ZM109.892 14.0867C110.602 13.9822 111.255 13.9203 111.852 13.8997L111.818 12.9003C111.178 12.9224 110.487 12.9884 109.746 13.0973L109.892 14.0867ZM111.481 13.7536L111.865 14.1376L112.573 13.4304L112.189 13.0464L111.481 13.7536ZM111.723 13.844L112.075 16.756L113.067 16.636L112.715 13.724L111.723 13.844ZM132.034 13.72L132.514 13.859L132.564 13.6864L132.493 13.5214L132.034 13.72ZM128.162 27.096V27.596H128.538L128.642 27.235L128.162 27.096ZM125.73 27.096L125.253 27.2467L125.363 27.596H125.73V27.096ZM120.642 11L120.165 11.1491L120.165 11.1507L120.642 11ZM119.97 10.36L119.838 10.8425L119.848 10.8451L119.97 10.36ZM118.562 9.976H118.062V10.3579L118.43 10.4584L118.562 9.976ZM118.562 8.792V8.292H118.062V8.792H118.562ZM125.538 8.792H126.038V8.292H125.538V8.792ZM125.538 9.976L125.638 10.4658L126.038 10.3837V9.976H125.538ZM123.202 10.456L123.101 9.96623L122.568 10.0759L122.722 10.5981L123.202 10.456ZM127.586 25.24V25.74H128.256L128.065 25.0978L127.586 25.24ZM127.106 25.24L126.626 25.0995L126.438 25.74H127.106V25.24ZM131.106 11.576L131.565 11.3774L131.015 10.1071L130.626 11.4355L131.106 11.576ZM130.402 11L130.875 10.8368L130.87 10.8244L130.402 11ZM129.73 10.36L129.575 10.8356L129.588 10.8397L129.601 10.8431L129.73 10.36ZM128.546 9.976H128.046V10.3395L128.391 10.4516L128.546 9.976ZM128.546 8.792V8.292H128.046V8.792H128.546ZM135.33 8.792H135.83V8.292H135.33V8.792ZM135.33 9.976L135.429 10.466L135.83 10.3848V9.976H135.33ZM132.962 10.456L132.862 9.96597L132.331 10.0738L132.481 10.595L132.962 10.456ZM137.25 25.272V25.772H137.915L137.73 25.133L137.25 25.272ZM136.706 25.272L136.224 25.1368L136.046 25.772H136.706V25.272ZM140.866 10.456L141.347 10.5912L141.492 10.0743L140.966 9.96623L140.866 10.456ZM138.53 9.976H138.03V10.3837L138.429 10.4658L138.53 9.976ZM138.53 8.792V8.292H138.03V8.792H138.53ZM144.578 8.792H145.078V8.292H144.578V8.792ZM144.578 9.976L144.707 10.4591L145.078 10.3601V9.976H144.578ZM143.138 10.36L143.259 10.8451L143.267 10.8431L143.138 10.36ZM142.69 10.584L143.002 10.9745L143.01 10.9681L142.69 10.584ZM142.466 11L142.946 11.1403L142.95 11.1245L142.954 11.1085L142.466 11ZM137.762 27.096V27.596H138.137L138.242 27.2363L137.762 27.096ZM135.33 27.096L134.851 27.2389L134.957 27.596H135.33V27.096ZM131.33 13.688L131.809 13.5451L131.806 13.5349L131.802 13.5248L131.33 13.688ZM131.553 13.581L127.681 26.957L128.642 27.235L132.514 13.859L131.553 13.581ZM128.162 26.596H125.73V27.596H128.162V26.596ZM126.206 26.9453L121.118 10.8493L120.165 11.1507L125.253 27.2467L126.206 26.9453ZM121.119 10.8509C120.961 10.3465 120.605 10.0034 120.091 9.87493L119.848 10.8451C120.017 10.8873 120.109 10.9708 120.165 11.1491L121.119 10.8509ZM120.101 9.87762L118.693 9.49362L118.43 10.4584L119.838 10.8424L120.101 9.87762ZM119.062 9.976V8.792H118.062V9.976H119.062ZM118.562 9.292H125.538V8.292H118.562V9.292ZM125.038 8.792V9.976H126.038V8.792H125.038ZM125.437 9.48623L123.101 9.96623L123.302 10.9458L125.638 10.4658L125.437 9.48623ZM122.722 10.5981L127.106 25.3822L128.065 25.0978L123.681 10.3138L122.722 10.5981ZM127.586 24.74H127.106V25.74H127.586V24.74ZM127.586 25.3805L131.586 11.7165L130.626 11.4355L126.626 25.0995L127.586 25.3805ZM130.647 11.7746L131.575 13.9186L132.493 13.5214L131.565 11.3774L130.647 11.7746ZM130.87 10.8244C130.692 10.3495 130.352 10.0085 129.859 9.87688L129.601 10.8431C129.747 10.8821 129.856 10.9678 129.934 11.1756L130.87 10.8244ZM129.884 9.88439L128.7 9.50039L128.391 10.4516L129.575 10.8356L129.884 9.88439ZM129.046 9.976V8.792H128.046V9.976H129.046ZM128.546 9.292H135.33V8.292H128.546V9.292ZM134.83 8.792V9.976H135.83V8.792H134.83ZM135.23 9.48597L132.862 9.96597L133.061 10.946L135.429 10.466L135.23 9.48597ZM132.481 10.595L136.769 25.411L137.73 25.133L133.442 10.317L132.481 10.595ZM137.25 24.772H136.706V25.772H137.25V24.772ZM137.187 25.4072L141.347 10.5912L140.384 10.3208L136.224 25.1368L137.187 25.4072ZM140.966 9.96623L138.63 9.48623L138.429 10.4658L140.765 10.9458L140.966 9.96623ZM139.03 9.976V8.792H138.03V9.976H139.03ZM138.53 9.292H144.578V8.292H138.53V9.292ZM144.078 8.792V9.976H145.078V8.792H144.078ZM144.449 9.49288L143.009 9.87688L143.267 10.8431L144.707 10.4591L144.449 9.49288ZM143.016 9.87493C142.777 9.93481 142.559 10.0423 142.37 10.1999L143.01 10.9681C143.077 10.9123 143.157 10.8705 143.259 10.8451L143.016 9.87493ZM142.377 10.1936C142.15 10.3756 142.034 10.6359 141.978 10.8915L142.954 11.1085C142.982 10.9801 143.016 10.9631 143.002 10.9744L142.377 10.1936ZM141.986 10.8597L137.282 26.9557L138.242 27.2363L142.946 11.1403L141.986 10.8597ZM137.762 26.596H135.33V27.596H137.762V26.596ZM135.809 26.9531L131.809 13.5451L130.851 13.8309L134.851 27.2389L135.809 26.9531ZM131.802 13.5248L130.874 10.8368L129.929 11.1632L130.857 13.8512L131.802 13.5248ZM150.649 25.592L150.728 25.0982L150.723 25.0975L150.649 25.592ZM152.057 25.816H152.557V25.3893L152.136 25.3222L152.057 25.816ZM152.057 27V27.5H152.557V27H152.057ZM145.465 27H144.965V27.5H145.465V27ZM145.465 25.816L145.387 25.3222L144.965 25.3893V25.816H145.465ZM146.873 25.592L146.799 25.0975L146.795 25.0982L146.873 25.592ZM146.905 15.416L146.837 15.9114L146.845 15.9124L146.853 15.9133L146.905 15.416ZM145.273 15.192H144.773V15.6281L145.205 15.6874L145.273 15.192ZM145.273 14.04L145.124 13.5628L144.773 13.6724V14.04H145.273ZM147.449 13.592L147.504 14.0891L147.516 14.0875L147.449 13.592ZM149.657 13.4L150.026 13.0621L149.871 12.8931L149.642 12.9002L149.657 13.4ZM150.009 13.784H150.509V13.5895L150.378 13.4461L150.009 13.784ZM149.721 11.032L150.062 11.3975L150.069 11.3916L150.075 11.3856L149.721 11.032ZM147.225 11.032L146.872 11.3856L146.878 11.3916L146.884 11.3975L147.225 11.032ZM147.225 8.6L147.566 8.96553L147.573 8.95965L147.579 8.95355L147.225 8.6ZM149.721 8.6L149.368 8.95355L149.374 8.95965L149.38 8.96553L149.721 8.6ZM149.509 24.856C149.509 25.1516 149.584 25.4492 149.792 25.6881C149.999 25.9263 150.283 26.0427 150.575 26.0865L150.723 25.0975C150.589 25.0773 150.553 25.039 150.547 25.0319C150.541 25.0255 150.509 24.9871 150.509 24.856H149.509ZM150.571 26.0858L151.979 26.3098L152.136 25.3222L150.728 25.0982L150.571 26.0858ZM151.557 25.816V27H152.557V25.816H151.557ZM152.057 26.5H145.465V27.5H152.057V26.5ZM145.965 27V25.816H144.965V27H145.965ZM145.544 26.3098L146.952 26.0858L146.795 25.0982L145.387 25.3222L145.544 26.3098ZM146.947 26.0865C147.239 26.0427 147.523 25.9263 147.731 25.6881C147.938 25.4492 148.013 25.1516 148.013 24.856H147.013C147.013 24.9871 146.982 25.0255 146.976 25.0319C146.97 25.039 146.934 25.0773 146.799 25.0975L146.947 26.0865ZM148.013 24.856V16.12H147.013V24.856H148.013ZM148.013 16.12C148.013 15.8318 147.945 15.5345 147.74 15.2972C147.532 15.0565 147.246 14.9491 146.958 14.9187L146.853 15.9133C146.912 15.9195 146.946 15.9309 146.964 15.9389C146.979 15.946 146.983 15.9508 146.983 15.9508C146.983 15.9512 146.99 15.9585 146.997 15.9825C147.005 16.0081 147.013 16.0519 147.013 16.12H148.013ZM146.973 14.9206L145.341 14.6966L145.205 15.6874L146.837 15.9114L146.973 14.9206ZM145.773 15.192V14.04H144.773V15.192H145.773ZM145.422 14.5172C146.072 14.3142 146.766 14.171 147.504 14.0889L147.394 13.0951C146.597 13.1837 145.84 13.3391 145.124 13.5628L145.422 14.5172ZM147.516 14.0875C148.291 13.9828 149.01 13.9205 149.673 13.8998L149.642 12.9002C148.939 12.9222 148.186 12.9879 147.382 13.0965L147.516 14.0875ZM149.289 13.7379L149.641 14.1219L150.378 13.4461L150.026 13.0621L149.289 13.7379ZM149.509 13.784V24.856H150.509V13.784H149.509ZM149.701 9.816C149.701 10.1864 149.586 10.4606 149.368 10.6784L150.075 11.3856C150.497 10.9634 150.701 10.427 150.701 9.816H149.701ZM149.38 10.6665C149.168 10.8642 148.882 10.98 148.473 10.98V11.98C149.089 11.98 149.634 11.7971 150.062 11.3975L149.38 10.6665ZM148.473 10.98C148.065 10.98 147.778 10.8642 147.566 10.6665L146.884 11.3975C147.312 11.7971 147.858 11.98 148.473 11.98V10.98ZM147.579 10.6784C147.361 10.4606 147.245 10.1864 147.245 9.816H146.245C146.245 10.427 146.45 10.9634 146.872 11.3856L147.579 10.6784ZM147.245 9.816C147.245 9.41693 147.365 9.15344 147.566 8.96553L146.884 8.23447C146.445 8.64389 146.245 9.19106 146.245 9.816H147.245ZM147.579 8.95355C147.792 8.73994 148.075 8.62 148.473 8.62V7.62C147.848 7.62 147.298 7.82006 146.872 8.24644L147.579 8.95355ZM148.473 8.62C148.872 8.62 149.154 8.73994 149.368 8.95355L150.075 8.24644C149.648 7.82006 149.099 7.62 148.473 7.62V8.62ZM149.38 8.96553C149.581 9.15344 149.701 9.41693 149.701 9.816H150.701C150.701 9.19106 150.501 8.64389 150.062 8.23447L149.38 8.96553ZM154.379 26.328L153.883 26.3941L153.92 26.6676L154.171 26.7825L154.379 26.328ZM154.283 24.472L154.783 24.4898L154.783 24.4892L154.283 24.472ZM154.411 22.744V22.244H153.967L153.915 22.6844L154.411 22.744ZM155.755 22.744L156.237 22.6124L156.137 22.244H155.755V22.744ZM156.235 24.504L156.723 24.3932L156.72 24.3828L156.717 24.3724L156.235 24.504ZM156.779 25.464L156.502 25.88L156.512 25.8866L156.522 25.8927L156.779 25.464ZM157.707 25.88L157.534 26.3492L157.542 26.3519L157.707 25.88ZM161.035 25.56L161.368 25.9326L161.369 25.9316L161.035 25.56ZM161.259 22.84L160.881 23.1675L160.887 23.1739L160.893 23.1802L161.259 22.84ZM160.043 21.976L159.827 22.4268L159.827 22.4268L160.043 21.976ZM158.091 21.112L158.283 20.6504L158.28 20.6491L158.091 21.112ZM155.531 19.672L155.21 20.0552L155.217 20.0612L155.531 19.672ZM155.883 14.36L156.174 14.7669L156.175 14.7656L155.883 14.36ZM161.547 13.592L161.648 13.1023L161.648 13.1023L161.547 13.592ZM163.371 14.136L163.871 14.1175L163.859 13.803L163.57 13.6775L163.371 14.136ZM163.115 17.56V18.06H163.528L163.606 17.6544L163.115 17.56ZM161.867 17.56L161.381 17.6767L161.473 18.06H161.867V17.56ZM161.483 15.96L161.969 15.8433L161.966 15.8297L161.962 15.8163L161.483 15.96ZM161.259 15.416L161.693 15.1679L161.693 15.1679L161.259 15.416ZM160.843 15.032L161.086 14.5949L160.843 15.032ZM160.139 14.744L159.981 15.2185L159.992 15.2219L160.139 14.744ZM159.211 14.584L159.24 14.0847L159.227 14.0842L159.211 14.584ZM157.515 15.032L157.806 15.4389L157.806 15.4389L157.515 15.032ZM157.291 17.784L157.657 17.4428L157.657 17.4428L157.291 17.784ZM158.411 18.584L158.196 19.0354L158.209 19.0415L158.222 19.0468L158.411 18.584ZM159.883 19.16L160.062 18.693L160.059 18.6918L159.883 19.16ZM163.467 21.4L163.061 21.6922L163.069 21.7025L163.467 21.4ZM162.635 26.296L162.345 25.8885L162.345 25.8885L162.635 26.296ZM156.331 27L156.201 27.4827L156.201 27.4827L156.331 27ZM154.875 26.2619C154.793 25.6475 154.762 25.057 154.783 24.4898L153.783 24.4542C153.761 25.0817 153.795 25.7285 153.883 26.3941L154.875 26.2619ZM154.783 24.4892C154.804 23.8826 154.845 23.3209 154.907 22.8036L153.915 22.6844C153.849 23.2337 153.805 23.824 153.783 24.4548L154.783 24.4892ZM154.411 23.244H155.755V22.244H154.411V23.244ZM155.273 22.8756L155.753 24.6356L156.717 24.3724L156.237 22.6124L155.273 22.8756ZM155.747 24.6148C155.867 25.1411 156.093 25.6073 156.502 25.88L157.056 25.048C156.953 24.9794 156.816 24.8056 156.723 24.3932L155.747 24.6148ZM156.522 25.8927C156.774 26.0444 157.118 26.1957 157.534 26.3492L157.88 25.4108C157.486 25.2657 157.21 25.1396 157.036 25.0353L156.522 25.8927ZM157.542 26.3519C158.034 26.5241 158.593 26.604 159.211 26.604V25.604C158.677 25.604 158.233 25.5345 157.872 25.4081L157.542 26.3519ZM159.211 26.604C160.086 26.604 160.835 26.4095 161.368 25.9326L160.702 25.1874C160.424 25.4358 159.957 25.604 159.211 25.604V26.604ZM161.369 25.9316C161.914 25.4413 162.175 24.7876 162.175 24.024H161.175C161.175 24.5404 161.009 24.9107 160.701 25.1884L161.369 25.9316ZM162.175 24.024C162.175 23.4343 162.005 22.9091 161.625 22.4998L160.893 23.1802C161.067 23.3682 161.175 23.6323 161.175 24.024H162.175ZM161.637 22.5125C161.301 22.1246 160.832 21.7999 160.259 21.5252L159.827 22.4268C160.321 22.6641 160.663 22.9154 160.881 23.1675L161.637 22.5125ZM160.259 21.5252C159.716 21.2643 159.056 20.9726 158.283 20.6505L157.899 21.5735C158.662 21.8914 159.304 22.1757 159.827 22.4268L160.259 21.5252ZM158.28 20.6491C157.266 20.2351 156.458 19.7775 155.845 19.2828L155.217 20.0612C155.926 20.6332 156.826 21.1355 157.902 21.5749L158.28 20.6491ZM155.852 19.2889C155.33 18.8512 155.039 18.1969 155.039 17.24H154.039C154.039 18.4165 154.409 19.3834 155.21 20.0551L155.852 19.2889ZM155.039 17.24C155.039 16.0914 155.432 15.2968 156.174 14.7669L155.592 13.9531C154.542 14.7032 154.039 15.8286 154.039 17.24H155.039ZM156.175 14.7656C156.986 14.181 158.06 13.868 159.435 13.868V12.868C157.909 12.868 156.614 13.2163 155.591 13.9544L156.175 14.7656ZM159.435 13.868C160.081 13.868 160.751 13.9387 161.446 14.0817L161.648 13.1023C160.892 12.9467 160.154 12.868 159.435 12.868V13.868ZM161.446 14.0817C162.15 14.2265 162.722 14.3991 163.172 14.5945L163.57 13.6775C163.039 13.4462 162.395 13.2561 161.648 13.1023L161.446 14.0817ZM162.871 14.1545C162.892 14.712 162.882 15.2695 162.84 15.8271L163.838 15.9009C163.882 15.3065 163.893 14.712 163.871 14.1175L162.871 14.1545ZM162.84 15.8271C162.799 16.3842 162.727 16.9303 162.624 17.4656L163.606 17.6544C163.716 17.0803 163.794 16.4958 163.838 15.9009L162.84 15.8271ZM163.115 17.06H161.867V18.06H163.115V17.06ZM162.353 17.4433L161.969 15.8433L160.997 16.0767L161.381 17.6767L162.353 17.4433ZM161.962 15.8163C161.89 15.5767 161.802 15.3583 161.693 15.1679L160.825 15.6641C160.887 15.7724 160.948 15.9167 161.004 16.1037L161.962 15.8163ZM161.693 15.1679C161.552 14.9201 161.336 14.7338 161.086 14.5949L160.6 15.4691C160.734 15.5435 160.796 15.6132 160.825 15.6641L161.693 15.1679ZM161.086 14.5949C160.856 14.467 160.587 14.3586 160.286 14.2661L159.992 15.2219C160.246 15.3 160.446 15.3837 160.6 15.4691L161.086 14.5949ZM160.297 14.2697C159.988 14.1666 159.633 14.1079 159.24 14.0849L159.182 15.0831C159.515 15.1027 159.778 15.1507 159.981 15.2183L160.297 14.2697ZM159.227 14.0842C158.461 14.0603 157.781 14.2274 157.224 14.6251L157.806 15.4389C158.145 15.1966 158.595 15.065 159.195 15.0838L159.227 14.0842ZM157.224 14.6251C156.613 15.0617 156.343 15.7353 156.343 16.536H157.343C157.343 15.9713 157.521 15.6423 157.806 15.4389L157.224 14.6251ZM156.343 16.536C156.343 17.1517 156.526 17.6971 156.925 18.1252L157.657 17.4428C157.459 17.2309 157.343 16.9443 157.343 16.536H156.343ZM156.925 18.1252C157.272 18.4968 157.699 18.7987 158.196 19.0354L158.626 18.1326C158.227 17.9426 157.907 17.7112 157.657 17.4428L156.925 18.1252ZM158.222 19.0468C158.696 19.2408 159.191 19.4346 159.707 19.6282L160.059 18.6918C159.551 18.5014 159.065 18.3112 158.6 18.1212L158.222 19.0468ZM159.704 19.627C160.412 19.8974 161.075 20.1983 161.696 20.5292L162.166 19.6468C161.507 19.295 160.805 18.9772 160.062 18.693L159.704 19.627ZM161.696 20.5292C162.275 20.8383 162.726 21.2271 163.061 21.6922L163.873 21.1078C163.44 20.5063 162.867 20.0204 162.166 19.6468L161.696 20.5292ZM163.069 21.7025C163.395 22.1318 163.575 22.691 163.575 23.416H164.575C164.575 22.5197 164.35 21.7349 163.865 21.0975L163.069 21.7025ZM163.575 23.416C163.575 24.5011 163.166 25.3051 162.345 25.8885L162.925 26.7035C164.024 25.9216 164.575 24.8056 164.575 23.416H163.575ZM162.345 25.8885C161.492 26.4951 160.355 26.82 158.891 26.82V27.82C160.499 27.82 161.858 27.4623 162.925 26.7035L162.345 25.8885ZM158.891 26.82C158.012 26.82 157.203 26.7179 156.461 26.5173L156.201 27.4827C157.037 27.7088 157.935 27.82 158.891 27.82V26.82ZM156.461 26.5173C155.688 26.3083 155.066 26.0927 154.587 25.8735L154.171 26.7825C154.716 27.0326 155.395 27.2651 156.201 27.4827L156.461 26.5173ZM168.289 15.288L167.914 14.957L167.913 14.9574L168.289 15.288ZM176.353 14.552L176.683 14.1768L176.683 14.1768L176.353 14.552ZM177.665 18.808L178.163 18.8436L178.163 18.8413L177.665 18.808ZM177.569 19.64V20.14H177.992L178.062 19.7222L177.569 19.64ZM168.449 19.64H167.949V20.14H168.449V19.64ZM168.449 18.424V17.924H167.949V18.424H168.449ZM175.169 18.424V18.924H175.578L175.659 18.5221L175.169 18.424ZM175.201 18.136L174.715 18.0147L174.701 18.0744V18.136H175.201ZM174.497 15.576L174.103 15.8849L174.109 15.8927L174.116 15.9002L174.497 15.576ZM170.113 15.928L170.524 16.2126L170.524 16.2126L170.113 15.928ZM169.761 23.32L169.298 23.5098L169.3 23.514L169.761 23.32ZM171.137 25.08L170.87 25.5031L170.879 25.5088L170.888 25.5141L171.137 25.08ZM175.265 25.08L175.035 24.6356L175.029 24.6388L175.265 25.08ZM176.833 23.672L177.09 23.2433L176.674 22.9938L176.412 23.4016L176.833 23.672ZM177.633 24.152L178.113 24.2908L178.22 23.9212L177.89 23.7233L177.633 24.152ZM175.841 26.456L175.575 26.0325L175.57 26.0354L175.841 26.456ZM169.185 26.456L168.898 26.8656L168.904 26.8697L168.91 26.8736L169.185 26.456ZM167.265 24.056L166.803 24.2483L166.804 24.2518L167.265 24.056ZM167.125 20.536C167.125 18.3764 167.658 16.7591 168.664 15.6186L167.913 14.9574C166.7 16.3343 166.125 18.2156 166.125 20.536H167.125ZM168.663 15.619C169.688 14.4592 171.059 13.868 172.833 13.868V12.868C170.808 12.868 169.151 13.5568 167.914 14.957L168.663 15.619ZM172.833 13.868C174.189 13.868 175.236 14.2347 176.022 14.9272L176.683 14.1768C175.677 13.2906 174.378 12.868 172.833 12.868V13.868ZM176.022 14.9272C176.783 15.5973 177.197 16.5956 177.197 18.008H178.197C178.197 16.3911 177.714 15.0854 176.683 14.1768L176.022 14.9272ZM177.197 18.008C177.197 18.2062 177.187 18.4609 177.166 18.7747L178.163 18.8413C178.185 18.5151 178.197 18.2364 178.197 18.008H177.197ZM177.166 18.7724C177.145 19.0578 177.115 19.3194 177.075 19.5578L178.062 19.7222C178.107 19.4486 178.141 19.1556 178.163 18.8436L177.166 18.7724ZM177.569 19.14H168.449V20.14H177.569V19.14ZM168.949 19.64V18.424H167.949V19.64H168.949ZM168.449 18.924H175.169V17.924H168.449V18.924ZM175.659 18.5221C175.685 18.3914 175.701 18.2618 175.701 18.136H174.701C174.701 18.1809 174.695 18.2432 174.678 18.3259L175.659 18.5221ZM175.686 18.2573C175.72 18.1188 175.733 17.9681 175.733 17.816H174.733C174.733 17.9199 174.723 17.9826 174.715 18.0147L175.686 18.2573ZM175.733 17.816C175.733 16.8061 175.46 15.9364 174.877 15.2518L174.116 15.9002C174.514 16.3676 174.733 16.9912 174.733 17.816H175.733ZM174.89 15.2671C174.31 14.5299 173.482 14.18 172.481 14.18V15.18C173.228 15.18 173.744 15.4274 174.103 15.8849L174.89 15.2671ZM172.481 14.18C171.312 14.18 170.37 14.678 169.701 15.6434L170.524 16.2126C171.007 15.514 171.644 15.18 172.481 15.18V14.18ZM169.701 15.6434C169.036 16.6039 168.749 18.0756 168.749 19.96H169.749C169.749 18.1324 170.037 16.9161 170.524 16.2126L169.701 15.6434ZM168.749 19.96C168.749 21.4003 168.922 22.5933 169.298 23.5098L170.223 23.1302C169.916 22.3827 169.749 21.3357 169.749 19.96H168.749ZM169.3 23.514C169.669 24.3917 170.185 25.0718 170.87 25.5031L171.403 24.6569C170.936 24.3628 170.534 23.8696 170.221 23.126L169.3 23.514ZM170.888 25.5141C171.57 25.9035 172.34 26.092 173.185 26.092V25.092C172.493 25.092 171.898 24.9392 171.385 24.6459L170.888 25.5141ZM173.185 26.092C174.011 26.092 174.785 25.9023 175.5 25.5212L175.029 24.6388C174.464 24.9404 173.852 25.092 173.185 25.092V26.092ZM175.494 25.5243C176.229 25.1448 176.819 24.6171 177.253 23.9424L176.412 23.4016C176.078 23.9216 175.623 24.3326 175.035 24.6357L175.494 25.5243ZM176.575 24.1007L177.375 24.5807L177.89 23.7233L177.09 23.2433L176.575 24.1007ZM177.152 24.0132C176.912 24.8449 176.397 25.5159 175.575 26.0326L176.106 26.8794C177.118 26.2441 177.798 25.3791 178.113 24.2908L177.152 24.0132ZM175.57 26.0354C174.773 26.5475 173.754 26.82 172.481 26.82V27.82C173.895 27.82 175.116 27.5165 176.111 26.8766L175.57 26.0354ZM172.481 26.82C171.23 26.82 170.233 26.5481 169.459 26.0384L168.91 26.8736C169.885 27.5159 171.086 27.82 172.481 27.82V26.82ZM169.471 26.0464C168.698 25.5052 168.116 24.781 167.725 23.8602L166.804 24.2518C167.266 25.3364 167.964 26.2121 168.898 26.8656L169.471 26.0464ZM167.726 23.8637C167.329 22.9112 167.125 21.8051 167.125 20.536H166.125C166.125 21.9122 166.347 23.1528 166.803 24.2483L167.726 23.8637ZM179.895 30.36L179.418 30.2106L179.215 30.86H179.895V30.36ZM187.287 6.744V6.244H186.92L186.81 6.59464L187.287 6.744ZM189.463 6.744L189.94 6.89336L190.144 6.244H189.463V6.744ZM182.071 30.36V30.86H182.439L182.548 30.5094L182.071 30.36ZM180.372 30.5094L187.764 6.89336L186.81 6.59464L179.418 30.2106L180.372 30.5094ZM187.287 7.244H189.463V6.244H187.287V7.244ZM188.986 6.59464L181.594 30.2106L182.548 30.5094L189.94 6.89336L188.986 6.59464ZM182.071 29.86H179.895V30.86H182.071V29.86ZM193.066 24.984L192.612 25.1941L192.828 25.661L193.289 25.4315L193.066 24.984ZM192.266 23.256L192.056 22.8021L191.602 23.012L191.812 23.4661L192.266 23.256ZM201.13 19.16H201.63V18.3782L200.92 18.7061L201.13 19.16ZM201.13 19.576L200.919 20.0293L201.63 20.3604V19.576H201.13ZM192.266 15.448L191.814 15.2347L191.599 15.6891L192.055 15.9013L192.266 15.448ZM193.066 13.752L193.289 13.3045L192.832 13.0766L192.614 13.5387L193.066 13.752ZM202.89 18.648H203.39V18.3385L203.113 18.2005L202.89 18.648ZM202.89 20.088L203.113 20.5355L203.39 20.3975V20.088H202.89ZM193.52 24.7739L192.72 23.0459L191.812 23.4661L192.612 25.1941L193.52 24.7739ZM192.476 23.7099L201.34 19.6139L200.92 18.7061L192.056 22.8021L192.476 23.7099ZM200.63 19.16V19.576H201.63V19.16H200.63ZM201.341 19.1227L192.477 14.9947L192.055 15.9013L200.919 20.0293L201.341 19.1227ZM192.718 15.6613L193.518 13.9653L192.614 13.5387L191.814 15.2347L192.718 15.6613ZM192.843 14.1995L202.667 19.0955L203.113 18.2005L193.289 13.3045L192.843 14.1995ZM202.39 18.648V20.088H203.39V18.648H202.39ZM202.667 19.6405L192.843 24.5365L193.289 25.4315L203.113 20.5355L202.667 19.6405Z" fill="#0E1217" mask="url(#path-1-outside-1_21_2)"/>
</svg>
