<svg width="106" height="61" viewBox="0 0 106 61" fill="none" xmlns="http://www.w3.org/2000/svg">
<path d="M52.688 22.288L49.952 21.76V20.032H57.152V21.76L56 22.096C55.744 22.16 55.52 22.272 55.328 22.432C55.168 22.56 55.04 22.768 54.944 23.056L49.76 40.288H47.696L52.688 22.288ZM36.656 40.288H34.112L28.592 23.008C28.432 22.56 28.096 22.256 27.584 22.096L26.48 21.76V20.032H34.976V21.76L32.288 22.288L37.04 38.896L36.656 40.288ZM41.648 20.032H44.336L49.472 38.848L49.088 40.288H46.544L41.072 21.856L41.648 20.032ZM37.376 40.288H35.264L40.832 20.032H43.088L37.376 40.288Z" fill="white"/>
<path d="M73.688 27.288L70.952 26.76V25.032H78.152V26.76L77 27.096C76.744 27.16 76.52 27.272 76.328 27.432C76.168 27.56 76.04 27.768 75.944 28.056L70.76 45.288H68.696L73.688 27.288ZM57.656 45.288H55.112L49.592 28.008C49.432 27.56 49.096 27.256 48.584 27.096L47.48 26.76V25.032H55.976V26.76L53.288 27.288L58.04 43.896L57.656 45.288ZM62.648 25.032H65.336L70.472 43.848L70.088 45.288H67.544L62.072 26.856L62.648 25.032ZM58.376 45.288H56.264L61.832 25.032H64.088L58.376 45.288Z" fill="white"/>
<path d="M17.136 41.928L2.4 34.584V32.424L17.136 25.08L18.336 27.672L5.04 33.768V33.096L18.336 39.384L17.136 41.928Z" fill="#3C52BE"/>
<path d="M17.136 41.928L2.4 34.584V32.424L17.136 25.08L18.336 27.672L5.04 33.768V33.096L18.336 39.384L17.136 41.928Z" fill="#3C52BE"/>
<path d="M88.864 24.072L103.6 31.416L103.6 33.576L88.864 40.92L87.664 38.328L100.96 32.232L100.96 32.904L87.664 26.616L88.864 24.072Z" fill="#3C52BE"/>
</svg>
