<svg width="202" height="25" viewBox="0 0 202 25" fill="none" xmlns="http://www.w3.org/2000/svg">
<path d="M10.424 18.952L0.6 14.056V12.616L10.424 7.72L11.224 9.448L2.36 13.512V13.064L11.224 17.256L10.424 18.952Z" fill="#3C52BE"/>
<path d="M26.69 7.72L22.818 21.096H20.386L15.298 5C15.1913 4.65867 14.9673 4.44533 14.626 4.36L13.218 3.976V2.792H20.194V3.976L17.858 4.456L22.242 19.24H21.762L25.762 5.576L26.69 7.72ZM25.058 5C24.93 4.65867 24.706 4.44533 24.386 4.36L23.202 3.976V2.792H29.986V3.976L27.618 4.456L31.906 19.272H31.362L35.522 4.456L33.186 3.976V2.792H39.234V3.976L37.794 4.36C37.6233 4.40267 37.474 4.47733 37.346 4.584C37.2393 4.66933 37.1647 4.808 37.122 5L32.418 21.096H29.986L25.986 7.688L25.058 5ZM38.7808 14.536C38.7808 12.296 39.3354 10.5467 40.4448 9.288C41.5754 8.008 43.0901 7.368 44.9888 7.368C46.4394 7.368 47.6128 7.76267 48.5088 8.552C49.4048 9.34133 49.8528 10.4933 49.8528 12.008C49.8528 12.2213 49.8421 12.488 49.8208 12.808C49.7994 13.1067 49.7674 13.384 49.7248 13.64H40.6048V12.424H47.3248C47.3461 12.3173 47.3568 12.2213 47.3568 12.136C47.3781 12.0507 47.3888 11.944 47.3888 11.816C47.3888 10.8987 47.1434 10.152 46.6528 9.576C46.1834 8.97867 45.5114 8.68 44.6368 8.68C43.6341 8.68 42.8448 9.096 42.2688 9.928C41.6928 10.76 41.4048 12.104 41.4048 13.96C41.4048 15.368 41.5754 16.488 41.9168 17.32C42.2581 18.1307 42.7168 18.7173 43.2928 19.08C43.8901 19.4213 44.5728 19.592 45.3408 19.592C46.0874 19.592 46.7808 19.4213 47.4208 19.08C48.0821 18.7387 48.6048 18.2693 48.9888 17.672L49.7888 18.152C49.5114 19.112 48.9141 19.88 47.9968 20.456C47.1008 21.032 45.9808 21.32 44.6368 21.32C43.3141 21.32 42.2154 21.032 41.3408 20.456C40.4874 19.8587 39.8474 19.0587 39.4208 18.056C38.9941 17.032 38.7808 15.8587 38.7808 14.536ZM53.3635 2.76C53.3635 2.35467 53.1608 2.12 52.7555 2.056L51.0275 1.8V0.743999C51.7102 0.551999 52.4462 0.402666 53.2355 0.296C54.0462 0.167999 54.7928 0.0933317 55.4755 0.0719986L55.8595 0.424V19.432C56.1368 19.5813 56.4675 19.72 56.8515 19.848C57.2355 19.9547 57.6835 20.008 58.1955 20.008C59.5182 20.008 60.5208 19.5707 61.2035 18.696C61.8862 17.8 62.2382 16.36 62.2595 14.376C62.3022 12.4133 62.0035 11.048 61.3635 10.28C60.7235 9.49067 59.8595 9.096 58.7715 9.096C58.0675 9.096 57.4382 9.23467 56.8835 9.512C56.3288 9.768 55.8275 10.1307 55.3795 10.6L55.2515 9.704C55.7422 9.04267 56.3502 8.488 57.0755 8.04C57.8222 7.592 58.7182 7.368 59.7635 7.368C60.7448 7.368 61.6195 7.592 62.3875 8.04C63.1768 8.46667 63.8062 9.14933 64.2755 10.088C64.7448 11.0267 64.9795 12.2427 64.9795 13.736C64.9795 16.0613 64.3822 17.9067 63.1875 19.272C61.9928 20.6373 60.2648 21.32 58.0035 21.32C57.0222 21.32 56.1048 21.2133 55.2515 21C54.3982 20.7867 53.7688 20.5947 53.3635 20.424V2.76ZM72.0093 18.856C72.0093 19.2827 72.2226 19.528 72.6493 19.592L74.0573 19.816V21H67.4653V19.816L68.8733 19.592C69.2999 19.528 69.5133 19.2827 69.5133 18.856V10.12C69.5133 9.69333 69.3106 9.45867 68.9053 9.416L67.2733 9.192V8.04C67.9559 7.82667 68.6813 7.67733 69.4493 7.592C70.2386 7.48533 70.9746 7.42133 71.6573 7.4L72.0093 7.784V18.856ZM72.2013 3.816C72.2013 4.30667 72.0413 4.712 71.7213 5.032C71.4013 5.33067 70.9853 5.48 70.4733 5.48C69.9613 5.48 69.5453 5.33067 69.2253 5.032C68.9053 4.712 68.7453 4.30667 68.7453 3.816C68.7453 3.304 68.9053 2.89867 69.2253 2.6C69.5453 2.28 69.9613 2.12 70.4733 2.12C70.9853 2.12 71.4013 2.28 71.7213 2.6C72.0413 2.89867 72.2013 3.304 72.2013 3.816ZM84.699 21V19.816L85.979 19.592C86.171 19.5493 86.3203 19.4747 86.427 19.368C86.555 19.2613 86.619 19.0907 86.619 18.856V12.936C86.619 11.656 86.4377 10.696 86.075 10.056C85.7337 9.416 85.0617 9.096 84.059 9.096C83.2697 9.096 82.5123 9.24533 81.787 9.544C81.083 9.84267 80.443 10.28 79.867 10.856L79.963 9.864C80.6457 8.92533 81.435 8.27467 82.331 7.912C83.227 7.54933 84.155 7.368 85.115 7.368C86.651 7.368 87.6963 7.816 88.251 8.712C88.8057 9.608 89.083 10.8667 89.083 12.488V18.856C89.083 19.2827 89.2963 19.528 89.723 19.592L91.163 19.816V21H84.699ZM76.027 21V19.816L77.435 19.592C77.8617 19.528 78.075 19.2827 78.075 18.856V10.12C78.075 9.71467 77.8723 9.48 77.467 9.416L75.835 9.192V8.04C76.475 7.848 77.147 7.69867 77.851 7.592C78.5763 7.48533 79.2483 7.42133 79.867 7.4L80.315 7.816L80.571 10.12V18.856C80.571 19.2827 80.7737 19.528 81.179 19.592L82.491 19.816V21H76.027ZM96.6765 21.256C95.6098 21.256 94.7138 20.9787 93.9885 20.424C93.2845 19.8693 92.9325 19.0693 92.9325 18.024C92.9325 17.128 93.1885 16.424 93.7005 15.912C94.2338 15.3787 94.8952 14.9947 95.6845 14.76C96.4738 14.5253 97.2738 14.376 98.0845 14.312L101.22 14.056V15.272L98.5005 15.528C97.5618 15.592 96.8365 15.8053 96.3245 16.168C95.8338 16.5307 95.5885 17.0747 95.5885 17.8C95.5885 18.376 95.7485 18.824 96.0685 19.144C96.4098 19.464 96.9112 19.624 97.5725 19.624C98.2765 19.624 98.9698 19.464 99.6525 19.144C100.357 18.824 100.89 18.4293 101.253 17.96L101.541 18.568C101.093 19.3573 100.431 20.008 99.5565 20.52C98.7032 21.0107 97.7432 21.256 96.6765 21.256ZM93.3165 10.184C93.6365 9.288 94.2765 8.60533 95.2365 8.136C96.1965 7.66667 97.2952 7.432 98.5325 7.432C100.09 7.432 101.253 7.82667 102.021 8.616C102.789 9.384 103.173 10.568 103.173 12.168V18.792C103.173 19.2613 103.407 19.5173 103.877 19.56L105.189 19.688V20.776C104.975 20.84 104.645 20.9253 104.197 21.032C103.749 21.1387 103.333 21.192 102.949 21.192C102.309 21.192 101.797 21.0107 101.413 20.648C101.05 20.2853 100.826 19.752 100.741 19.048V12.52C100.741 11.3253 100.495 10.4933 100.005 10.024C99.5352 9.53333 98.8098 9.288 97.8285 9.288C97.1032 9.288 96.4098 9.40533 95.7485 9.64C95.0872 9.87467 94.4792 10.2587 93.9245 10.792L93.3165 10.184ZM110.995 10.728C111.272 10.216 111.656 9.704 112.147 9.192C112.659 8.65867 113.235 8.22133 113.875 7.88C114.536 7.53867 115.208 7.368 115.891 7.368C116.126 7.368 116.392 7.4 116.691 7.464C117.011 7.528 117.278 7.61333 117.491 7.72C117.534 8.36 117.523 9.096 117.459 9.928C117.416 10.7387 117.32 11.4853 117.171 12.168H115.987L115.635 10.344C115.571 10.088 115.475 9.90667 115.347 9.8C115.24 9.69333 115.07 9.64 114.835 9.64C114.216 9.64 113.576 9.8 112.915 10.12C112.254 10.4187 111.656 10.8987 111.123 11.56L110.995 10.728ZM111.571 10.696V18.856C111.571 19.304 111.795 19.5493 112.243 19.592L114.579 19.848V21H107.027V19.816L108.435 19.592C108.862 19.528 109.075 19.2827 109.075 18.856V10.184C109.075 9.71467 108.862 9.448 108.435 9.384L106.835 9.192V8.04C107.454 7.848 108.115 7.69867 108.819 7.592C109.544 7.48533 110.216 7.42133 110.835 7.4L111.219 7.784L111.571 10.696ZM131.034 7.72L127.162 21.096H124.73L119.642 5C119.535 4.65867 119.311 4.44533 118.97 4.36L117.562 3.976V2.792H124.538V3.976L122.202 4.456L126.586 19.24H126.106L130.106 5.576L131.034 7.72ZM129.402 5C129.274 4.65867 129.05 4.44533 128.73 4.36L127.546 3.976V2.792H134.33V3.976L131.962 4.456L136.25 19.272H135.706L139.866 4.456L137.53 3.976V2.792H143.578V3.976L142.138 4.36C141.967 4.40267 141.818 4.47733 141.69 4.584C141.583 4.66933 141.508 4.808 141.466 5L136.762 21.096H134.33L130.33 7.688L129.402 5ZM149.009 18.856C149.009 19.2827 149.223 19.528 149.649 19.592L151.057 19.816V21H144.465V19.816L145.873 19.592C146.3 19.528 146.513 19.2827 146.513 18.856V10.12C146.513 9.69333 146.311 9.45867 145.905 9.416L144.273 9.192V8.04C144.956 7.82667 145.681 7.67733 146.449 7.592C147.239 7.48533 147.975 7.42133 148.657 7.4L149.009 7.784V18.856ZM149.201 3.816C149.201 4.30667 149.041 4.712 148.721 5.032C148.401 5.33067 147.985 5.48 147.473 5.48C146.961 5.48 146.545 5.33067 146.225 5.032C145.905 4.712 145.745 4.30667 145.745 3.816C145.745 3.304 145.905 2.89867 146.225 2.6C146.545 2.28 146.961 2.12 147.473 2.12C147.985 2.12 148.401 2.28 148.721 2.6C149.041 2.89867 149.201 3.304 149.201 3.816ZM153.379 20.328C153.294 19.688 153.262 19.0693 153.283 18.472C153.304 17.8533 153.347 17.2773 153.411 16.744H154.755L155.235 18.504C155.342 18.9733 155.523 19.2933 155.779 19.464C155.992 19.592 156.302 19.7307 156.707 19.88C157.134 20.0293 157.635 20.104 158.211 20.104C159.022 20.104 159.63 19.9227 160.035 19.56C160.462 19.176 160.675 18.664 160.675 18.024C160.675 17.5333 160.536 17.1387 160.259 16.84C159.982 16.52 159.576 16.232 159.043 15.976C158.51 15.72 157.859 15.432 157.091 15.112C156.046 14.6853 155.192 14.2053 154.531 13.672C153.87 13.1173 153.539 12.3067 153.539 11.24C153.539 9.96 153.987 9 154.883 8.36C155.8 7.69867 156.984 7.368 158.435 7.368C159.118 7.368 159.822 7.44267 160.547 7.592C161.272 7.74133 161.88 7.92267 162.371 8.136C162.392 8.712 162.382 9.288 162.339 9.864C162.296 10.44 162.222 11.0053 162.115 11.56H160.867L160.483 9.96C160.419 9.74667 160.344 9.56533 160.259 9.416C160.174 9.26667 160.035 9.13867 159.843 9.032C159.651 8.92533 159.416 8.82933 159.139 8.744C158.883 8.65867 158.574 8.60533 158.211 8.584C157.528 8.56267 156.963 8.712 156.515 9.032C156.067 9.352 155.843 9.85333 155.843 10.536C155.843 11.048 155.992 11.464 156.291 11.784C156.59 12.104 156.963 12.3707 157.411 12.584C157.88 12.776 158.371 12.968 158.883 13.16C159.608 13.4373 160.291 13.7467 160.931 14.088C161.571 14.4293 162.083 14.8667 162.467 15.4C162.872 15.9333 163.075 16.6053 163.075 17.416C163.075 18.6533 162.595 19.6133 161.635 20.296C160.675 20.9787 159.427 21.32 157.891 21.32C156.974 21.32 156.12 21.2133 155.331 21C154.542 20.7867 153.891 20.5627 153.379 20.328ZM165.625 14.536C165.625 12.296 166.179 10.5467 167.289 9.288C168.419 8.008 169.934 7.368 171.833 7.368C173.283 7.368 174.457 7.76267 175.353 8.552C176.249 9.34133 176.697 10.4933 176.697 12.008C176.697 12.2213 176.686 12.488 176.665 12.808C176.643 13.1067 176.611 13.384 176.569 13.64H167.449V12.424H174.169C174.19 12.3173 174.201 12.2213 174.201 12.136C174.222 12.0507 174.233 11.944 174.233 11.816C174.233 10.8987 173.987 10.152 173.497 9.576C173.027 8.97867 172.355 8.68 171.481 8.68C170.478 8.68 169.689 9.096 169.113 9.928C168.537 10.76 168.249 12.104 168.249 13.96C168.249 15.368 168.419 16.488 168.761 17.32C169.102 18.1307 169.561 18.7173 170.137 19.08C170.734 19.4213 171.417 19.592 172.185 19.592C172.931 19.592 173.625 19.4213 174.265 19.08C174.926 18.7387 175.449 18.2693 175.833 17.672L176.633 18.152C176.355 19.112 175.758 19.88 174.841 20.456C173.945 21.032 172.825 21.32 171.481 21.32C170.158 21.32 169.059 21.032 168.185 20.456C167.331 19.8587 166.691 19.0587 166.265 18.056C165.838 17.032 165.625 15.8587 165.625 14.536Z" fill="#202020"/>
<path d="M178.895 24.36L186.287 0.743999H188.463L181.071 24.36H178.895ZM192.066 18.984L191.266 17.256L200.13 13.16V13.576L191.266 9.448L192.066 7.752L201.89 12.648V14.088L192.066 18.984Z" fill="#3C52BE" fill-opacity="0.866667"/>
</svg>
